<?xml version="1.0" encoding="utf-8"?>
<!-- Generator: Adobe Illustrator 17.1.0, SVG Export Plug-In . SVG Version: 6.00 Build 0)  -->
<!DOCTYPE svg PUBLIC "-//W3C//DTD SVG 1.1//EN" "http://www.w3.org/Graphics/SVG/1.1/DTD/svg11.dtd">
<svg version="1.1" id="Layer_1" xmlns="http://www.w3.org/2000/svg" xmlns:xlink="http://www.w3.org/1999/xlink" x="0px" y="0px"
	 viewBox="0 0 1000 1000" enable-background="new 0 0 1000 1000" xml:space="preserve">
<rect x="-1" y="1" width="1000" height="1000"/>
<g>
	<path fill-rule="evenodd" clip-rule="evenodd" fill="#FFFFFF" d="M763.5,311.6C763.5,311.6,763.5,311.6,763.5,311.6
		C763.4,311.6,763.4,311.6,763.5,311.6z"/>
	<path fill-rule="evenodd" clip-rule="evenodd" fill="#FFFFFF" d="M781.7,292.6c-1.3-7-5.9-12.7-11.7-16.6c-3.1-2.1-6.4-3.6-9.8-5.1
		c-3.3-1.4-6.5-2.9-9.8-4.4c-13-6.1-25.7-13-38-20.6c-3.1-1.9-6.1-3.8-9.1-5.8c-1.6-1.1-2.4-1.6-4-2.7c-1.5-1-3.1-2.1-4.6-3.2
		c-5.9-4.1-11.6-8.4-17.3-12.8c-5.6-4.4-11.2-9-16.5-13.8c-2.7-2.4-5.5-4.8-8.2-7.3c-2.6-2.4-5.2-4.9-7.9-7.3
		c-0.3-0.3-0.7-0.6-1-0.9c0-0.2,0-0.4-0.1-0.7c7.1-6.3,9.1-16.7,6.5-25.8c-2.8-9.9-10.8-17.6-19.5-22.4c-10.4-5.7-22.5-8-34.1-10.3
		c-11.5-2.3-23-4.1-34.6-5.3c-23.3-2.5-47-2.5-70.2,1.3c-20,3.3-39.4,9.8-57.3,19.3c-17.1,9.1-33.3,21.4-44.9,37c-0.7,1-1.4,2-2.1,3
		c-0.4,0.5-0.6,1.2-0.9,1.8c-0.5,0.7-0.9,1.5-1.4,2.3c-4.8,8.8-5.3,19.2-2.3,28.7c3.1,9.6,9.5,18.1,17.6,24.1
		c9.4,6.9,20.6,10.9,32,12.7c6.3,1,12.7,1.2,19,2c3.2,0.4,6.3,1,9.4,1.9c1.5,0.4,2.7,0.8,4.1,1.3c1.5,0.5,3.1,0.9,4.5,1.5
		c0.6,0.3,1.2,0.2,1.6,0c1.3,0.6,2.6,1.1,4,1.7c4.6,1.9,9.3,3.6,14,5.4c9.5,3.5,19,6.7,28.7,9.7c19,5.9,38.4,10.9,57.9,15.1
		c19.6,4.2,39.3,7.6,59.2,10.1c12.5,1.5,25,2.8,37.6,3.7c1.2,0.3,2.6,0.6,3.7,0.3c6.2,0.4,12.3,0.8,18.5,1c10,0.4,20,0.4,30,0.4
		c5,0,10-0.3,15-0.4c5-0.1,10-0.3,15-0.6c1-0.1,1.9-0.2,2.9-0.2c1.1,0.4,2.3,0.8,3.5,0.9c0.7,0.1,1.5,0.2,2.2,0.2c0,0,1,0,0.6,0
		c-0.5,0,0.8,0,0.7,0c0.4,0,0.8,0,1.2,0c3-0.1,6.3-1.3,8.8-2.8C780.2,305.6,782.8,298.8,781.7,292.6L781.7,292.6z M533.5,279.2
		L533.5,279.2c-0.1-0.1-0.1-0.2-0.2-0.2c-2.7-1.6-5.6-2.8-8.4-4.3c-2.9-1.5-5.6-3.1-8.3-4.8c-1.7-1.1-3.4-2.3-5.1-3.5
		c0.5,0.2,0.9,0.4,1.4,0.5c10.3,4,20.8,7.6,31.4,10.7c1.2,0.7,2.4,1.3,3.7,2c4.8,2.4,10,4.6,15.4,5.3c0.8,0.1,1.3-1,0.5-1.4
		c-1.3-0.6-2.6-1.1-4-1.6c2.9,0.7,5.8,1.4,8.7,2.1c3.4,0.8,6.9,1.6,10.4,2.3c3.6,2.4,7.4,4.5,11.3,6.4c-1.9-0.4-3.8-0.8-5.7-1.1
		C567.3,288.1,550.3,283.9,533.5,279.2L533.5,279.2z M684.8,305.1L684.8,305.1c-1.2-0.6-2.5-1.2-3.7-1.8c-3.4-1.7-6.8-3.4-10.2-5.1
		c4.9,0.4,9.7,0.8,14.6,1c3.6,1.4,7.2,2.9,10.9,4.3c2,0.8,4.1,1.5,6.2,2.2c0.3,0.1,0.6,0.2,0.9,0.3c-0.3,0-0.6,0-0.9,0
		C696.5,305.8,690.7,305.5,684.8,305.1L684.8,305.1z M708.1,306.3L708.1,306.3c-1.5-0.8-3.1-1.5-4.6-2.2c-2.1-1-4.2-1.9-6.3-2.8
		c-1.5-0.6-3-1.2-4.5-1.8c2.9,0.1,5.9,0.1,8.8,0.1c1.7,0,3.5,0,5.2,0c1.1,0.7,2.3,1.4,3.5,2c1.1,0.6,2.3,1.1,3.5,1.5
		c1,0.4,2.3,1,3.4,0.6c0.4-0.1,0.6-0.6,0.3-1c-0.6-0.9-1.8-1.2-2.8-1.6c-1.1-0.5-2.3-0.9-3.4-1.5c-0.1-0.1-0.2-0.1-0.4-0.2
		c3.1-0.1,6.3-0.2,9.4-0.4c2.9,2.1,5.9,4,9,5.7c1.5,0.8,3,1.5,4.5,2.2c-0.5,0-1.1,0-1.6,0C724.2,306.9,716.1,306.6,708.1,306.3
		L708.1,306.3z M776.2,297.9L776.2,297.9c-0.3,1.1-0.8,2.2-1.4,2.9c-0.2,0.2-0.4,0.5-0.6,0.7c-0.1,0.1-0.3,0.3-0.4,0.4
		c0,0-0.1,0.1-0.2,0.1c0,0-0.1,0.1-0.1,0.1c-0.1,0.1-0.3,0.2-0.4,0.3c-0.3,0.2-0.6,0.4-0.9,0.6c-0.2,0.1-0.5,0.3-0.7,0.4
		c-0.2,0.1-0.3,0.2-0.5,0.3c0,0-0.1,0-0.1,0.1c-0.1,0-0.1,0.1-0.1,0.1c-0.2,0.1-0.3,0.2-0.5,0.2c-0.3,0.1-0.7,0.3-1,0.4
		c-0.6,0.2-1.2,0.4-1.8,0.5c0,0-0.1,0-0.1,0c-0.1,0-0.2,0-0.4,0.1c-0.4,0.1-0.8,0.1-1.1,0.2c-1.3,0.2-2.6,0.5-4,0.5
		c-0.3,0-0.7,0-1,0c0,0-0.1,0-0.1,0c-0.2,0-0.3,0-0.5,0c-0.4,0-0.9,0-1.3,0c-0.2,0-0.9,0-0.7,0c-1.1-0.1-2.1,0.3-2.6,1.3
		c-5.7,0-11.4,0.1-17.1,0.1c-0.8-0.4-1.6-0.7-2.4-1.1c-2-0.9-3.9-2-5.9-3c-2.3-1.2-4.5-2.5-6.6-4c5-0.3,10.1-0.7,15.1-1.2
		c2.9,1.8,5.9,3.4,9,4.8c1.6,0.7,3.2,1.3,4.8,1.9c1.4,0.5,3,1.2,4.4,0.4c0.4-0.2,0.3-0.7,0.2-1c-0.7-1.4-2.6-1.7-3.9-2.2
		c-1.6-0.5-3.1-1.1-4.6-1.8c-1.9-0.8-3.7-1.7-5.6-2.6c3-0.3,6-0.8,9-1.2c0.2,0,0.4-0.1,0.6-0.1c-0.4,0.3-0.4,1-0.2,1.4
		c0.3,0.6,0.4,1.2,0.5,1.8c0.2,0.8,1.5,0.5,1.4-0.3c0-0.2-0.1-0.5-0.1-0.7c1.8,0.6,3.5,1.2,5.1,2.1c1,0.6,1.9,1.2,2.9,1.9
		c1,0.7,1.9,1.5,3.1,2c0.6,0.2,1.2-0.3,1-0.9c-0.8-2.3-3.5-4-5.6-5.2c-2.2-1.1-4.6-2.1-7-2.3c1.3-0.2,2.6-0.3,3.9-0.5
		c1.8-0.3,3.7-0.4,5.2-1.6c0.6-0.5,0.7-1.6-0.1-1.9c-1.6-0.6-3-0.5-4.6-0.2c-1.7,0.2-3.4,0.5-5.2,0.7c-3.3,0.4-6.6,0.8-10,1
		c-6.5,0.5-13,1.2-19.6,1.6c-6.3,0.4-12.5,0.6-18.8,0.8c-0.4-0.2-0.7-0.1-1,0c-6.5,0.1-12.9,0.1-19.4,0c-7.5-0.1-15-0.3-22.5-0.8
		c-1.4-0.1-1.9,2.1-0.4,2.2c2.8,0.3,5.6,0.6,8.4,0.8c-0.7,0.4-1,1.6-0.1,2c3,1.5,6.1,3,9.1,4.5c-5.8-0.4-11.6-0.9-17.4-1.5
		c-1-0.5-2-1.1-3-1.7c-1-0.6-1.8,0.3-1.8,1.2c-4.5-0.5-9.1-1-13.6-1.6c-14.8-1.9-29.5-4.1-44.2-6.8c-2.2-1-4.5-2-6.7-3.1
		c-2.3-1.2-4.6-2.4-6.9-3.8c2.3,0.4,4.6,0.8,6.9,1c2.8,0.3,5.5,0.5,8.4,0.5c1.3,0,1.2-1.8,0.1-2.1c-4.6-1.4-9.3-2.5-14.1-3.5
		c-4.7-1-9.4-1.9-14.1-3c-9.4-2.1-18.7-4.5-28-7.2c-1.5-0.4-3-0.9-4.5-1.4c-1.4-1-2.9-2-4.2-3.1c-1-0.8-2.2,0.2-2.2,1.1
		c-10.6-3.3-21-7-31.3-11c-0.3-0.3-0.6-0.5-0.9-0.8c-0.4-0.3-0.8-0.3-1.1,0c-3.3-1.3-6.5-2.6-9.7-4c-9.2-3.9-18.3-8-27.3-12.3
		c1.6-1.5,2.9-3.1,4.1-4.9c-0.3,1-0.4,2.1,0.3,3.1c0.3,0.5,0.9,0.6,1.4,0.5c1.9-0.5,2.4-2.4,3.1-4c0.7-1.6,1.5-3.2,2.3-4.7
		c1.7-3,3.6-5.9,5.5-8.8c0.6-0.9-0.8-2.1-1.6-1.4c-2.9,2.4-5.2,5.2-7.3,8.3c-0.4,0.7-0.8,1.4-1.3,2c0.6-1.7,1.1-3.6,1.4-5.4
		c1.8-13.6-5.9-26.1-16.1-34.4c-3.1-2.5-6.5-4.8-10-6.7c-3.6-2-7.4-3.6-11.3-5.1c-0.7-0.3-1.3,0.7-0.6,1.1
		c5.9,3.2,11.9,6.6,17.3,10.6c5,3.8,9.5,8.5,12.5,14c2.8,5.1,4.6,10.9,4.4,16.8c-0.2,5.3-2.3,10.4-5.8,14.3
		c-1.9,2.1-4.2,3.9-6.8,5.1c-2.8,1.2-5.7,1.5-8.5,2.3c-1.3,0.3-1.4,2.4-0.2,2.9c2.9,1.2,6.2,0.6,9-0.4c2.6-1,4.9-2.4,7-4.1
		c0.1,0.1,0.3,0.2,0.4,0.2c-0.6,0-1.2,0.7-0.7,1.4c2.3,3,5,5.8,7.9,8.2c1.4,1.2,3,2.2,4.5,3.2c0.8,0.5,1.6,1,2.4,1.5
		c0.7,0.4,1.6,1,2.4,0.6c0.2-0.1,0.5-0.4,0.4-0.6c-0.2-0.8-0.7-1.1-1.4-1.5c-0.8-0.5-1.7-0.9-2.5-1.4c-1.5-0.9-3-2-4.4-3.1
		c-2.9-2.2-5.4-4.8-7.7-7.7c3.5,2,7,3.9,10.5,5.8c-0.2,0.3-0.2,0.8,0.2,1.1c5,4.5,10.4,8.6,16.2,12.2c2.9,1.8,5.8,3.5,8.9,5
		c1.5,0.7,3,1.4,4.5,2.1c1.6,0.6,3.2,1.4,4.9,1.5c0.5,0,1-0.6,0.5-1c-1.3-1-2.8-1.6-4.3-2.3c-1.5-0.7-3.1-1.5-4.6-2.2
		c-2.9-1.5-5.8-3-8.6-4.7c-4.7-2.8-9.1-6-13.3-9.5c2.6,1.3,5.3,2.6,8,3.9c6.4,3,12.8,5.8,19.3,8.5c3.3,2.7,6.7,5.2,10.2,7.5
		c2.7,1.8,5.6,3.4,8.5,5c0.1,0.1,0.2,0.1,0.3,0.2c-8.8-2.6-17.6-5.4-26.4-8.2c-4.7-1.5-9.4-3.1-14-4.7c-4.6-1.6-9.3-3.5-14.1-4.7
		c-0.4-0.1-0.9-0.2-1.3-0.3c-1-0.8-2.2-1.5-3.4-2c-2.6-1.2-5.4-1.9-8.2-2.5c-2.1-0.4-4.1-0.7-6.2-0.9c-0.1-0.2-0.2-0.3-0.3-0.4
		c-3.4-1.9-7.3-2.9-10.9-4.3c-3.7-1.4-7.3-3-10.8-4.7c-7-3.4-13.8-7.5-20.1-12.1c-3.6-2.6-7.1-5.5-10.4-8.5c-1-0.9-2.4,0.7-1.4,1.6
		c11.8,10.9,25.5,19.7,40.5,25.7c1.6,0.6,3.2,1.3,4.9,1.9c-0.6-0.1-1.2-0.1-1.9-0.2c-10.9-1-21.2-3.3-30.7-8.6
		c-4.2-2.4-8.2-5.4-11.6-9c-2.6-2.8-5.7-7.3-7.3-10.8c-1-2.1-1.8-4.3-2.4-6.5c-0.1-0.5-0.3-1-0.4-1.5c0,0-0.1-0.6-0.1-0.6
		c0-0.2-0.1-0.3-0.1-0.5c-0.2-1.2-0.4-2.5-0.5-3.7c-0.2-2.4-0.2-4.1,0.2-6.3c0.1-1,0.3-1.9,0.6-2.9c0.1-0.6,0.3-1.1,0.5-1.7
		c0.1-0.2,0.1-0.4,0.2-0.6c0,0,0-0.1,0-0.1c0.1-0.2,0.1-0.4,0.2-0.6c0.8-2.3,1.9-4.4,3.3-6.5c0-0.1,0.1-0.1,0.1-0.1
		c0,0,0.1-0.1,0.1-0.1c0.2-0.3,0.4-0.6,0.6-0.9c-0.1,0.2-0.1,0.2,0.1-0.1c0.3-0.5,0.7-1,1.1-1.4c0.7-0.9,1.5-1.8,2.3-2.7
		c1.6-1.7,3.3-3.2,5.3-4.5c2-1.3,4.1-2.5,6.4-3.1c1.1-0.3,0.7-2.1-0.4-2c-1.3,0.1-2.7,0.3-4,0.6c1.5-1.5,3.1-2.9,4.6-4.3
		c7-6.1,14.6-11.5,22.6-16.3c16.2-9.6,34.2-16.2,52.6-20.2c21.2-4.5,43.7-5.6,65.5-4.1c11.3,0.8,22.7,2.2,33.9,4
		c11.1,1.9,22.5,3.9,33.3,7.2c9.4,2.9,18.4,7.6,24,15.5c2.6,3.6,4.1,7.6,4.4,11.9c0.2,2.4,0.1,3.8-0.5,6.2c-0.1,0.5-0.3,1.1-0.4,1.6
		c0,0-0.1,0.3-0.1,0.3c-0.1,0.2-0.1,0.3-0.2,0.5c-0.4,1.1-0.9,2.2-1.5,3.3c-0.6,1.1-0.7,1.3-1.5,2.2c-0.6,0.7-1.4,1.6-1.9,2
		c-0.3,0.3-0.6,0.6-0.8,0.9c-3.6-1.1-7.4-1.9-11.1-2.7c-5.6-1.2-11.2-2.2-16.8-3.1c-11.5-1.7-23.2-2.4-34.8-2.5
		c-19.6-0.2-39.8,1.4-58.4,8.3c-5,1.9-9.8,4.1-14.3,6.9c-2.2,1.3-4.4,2.8-6.4,4.4c-2.1,1.7-3.8,3.7-5.5,5.7
		c-0.8,0.9,0.4,2.3,1.4,1.6c1.9-1.3,3.9-2.5,5.8-3.7c1.9-1.2,3.8-2.5,5.8-3.6c3.9-2.3,7.9-4.2,12.1-5.8c8.4-3.3,17.3-5.5,26.3-6.8
		c9.8-1.5,19.7-2,29.6-2c9.4,0,18.8,0.4,28.1,1.4c-0.1,0-0.1,0-0.2,0.1c-0.2,0.1-0.3,0.1-0.5,0.2c-0.4,0.1-0.7,0.4-0.8,0.7
		c-0.2,0.3-0.2,0.8-0.1,1.2c0.1,0.4,0.4,0.7,0.7,0.8c0.1,0,0.3,0.1,0.4,0.1c0.3,0.1,0.5,0,0.8-0.1c0.2,0,0.3-0.1,0.5-0.1
		c0.4-0.1,0.7-0.4,0.9-0.8c0.2-0.3,0.2-0.8,0.1-1.2c-0.1-0.4-0.4-0.7-0.8-0.9c0,0-0.1,0-0.1,0c1.5,0.2,3,0.3,4.5,0.5
		c0.4,0,0.7,0.1,1.1,0.1c-0.4,0.6-0.4,1.3,0.2,1.9c1.6,1.3,3.5,1.7,5.4,2.5c1.6,0.7,3.3,1.6,4.4,2.9c1.8,2.2,2.3,5.8-0.5,7.4
		c-1.6,0.9-3.5,1.1-5.3,1.3c-2.1,0.2-4.3,0.2-6.4,0c-4-0.4-8.7-1.6-11.7-4.4c-1.5-1.3-2.5-3.4-2.2-5.4c0.3-1.9,2-3.6,4-3.3
		c1.3,0.2,1.7-1.8,0.4-2c-2.1-0.4-4.3,0.6-5.7,2.2c-1.5,1.8-1.7,4.2-1.1,6.5c1.4,5.2,7.1,7.8,11.8,9.1c5.1,1.4,11.1,1.7,16.2,0.1
		c2.3-0.7,4.3-2.2,5.3-4.4c0.9-2.1,0.8-4.5,0-6.6c-0.9-2.6-2.8-4.6-5.2-6c-0.4-0.2-0.8-0.5-1.2-0.7c3.2,0.5,6.3,1,9.5,1.5
		c4.5,0.8,9.1,1.9,13.6,2.7c-1.4,0.3-2.6,1.1-3,2.7c-0.2,0.7,0.6,1.2,1.2,1c1.7-0.5,3.7-0.4,5.1,0.7c1.3,1,2,2.6,2.4,4.3
		c-1.2,0-2.3,0.1-3.5,0.1c-1,0-1.9,0.1-2.9,0.2c-0.4,0-0.8,0.1-1.2,0.1c-0.3,0-0.5,0-0.8,0.1c-0.1-0.8,0-1.8,0-2.5
		c0-1,0.2-2.2-0.5-2.9c-0.2-0.2-0.5-0.2-0.7-0.1c-1.5,0.5-1.7,3.3-1.9,4.7c-0.1,1.7-0.2,3.9,2,4.3c0.9,0.2,2,0.1,3,0.1
		c1,0,1.9,0,2.9,0c2-0.1,4.1-0.1,6.1-0.2c1.1,0,1.7-1,1.7-2c6.4,6.7,13.5,12.9,20.5,18.9c10.8,9.1,22.1,17.5,33.8,25.3
		c11.7,7.7,23.8,14.7,36.3,21c6.2,3.1,12.4,6,18.8,8.8c6.2,2.7,12.2,5.2,16.7,10c1.5,1.6,2.9,4.6,3.2,7
		C776.6,295.5,776.6,296.6,776.2,297.9z"/>
	<path fill-rule="evenodd" clip-rule="evenodd" fill="#FFFFFF" d="M636.9,294.2c-0.7-0.4-1.4-0.9-2.2-1.2c-0.8-0.3-1.6-0.6-2.4-0.9
		c-0.8-0.3-1.4,0.9-0.6,1.2c0.9,0.3,1.7,0.6,2.6,0.9c0.8,0.3,1.6,0.4,2.4,0.6C637.1,294.9,637.2,294.3,636.9,294.2z"/>
	<path fill-rule="evenodd" clip-rule="evenodd" fill="#FFFFFF" d="M424.9,178.5c0.1,0,0.1,0,0.2,0c0,0,0.1,0,0.1,0c0,0,0,0,0,0
		c0,0,0.1,0,0.1,0c0,0,0,0,0,0c0,0,0,0,0,0.1c0.5,0.7,1.6,0.9,2.3,0.4c0.8-0.5,0.9-1.5,0.4-2.3c-0.5-0.8-1.4-1.4-2.3-1.5
		c-1.1-0.2-2.5,0-3,1.1C422.2,177.8,423.5,178.9,424.9,178.5z"/>
	<path fill-rule="evenodd" clip-rule="evenodd" fill="#FFFFFF" d="M610.4,237.9c0.3-3.8-0.7-7.4-2.4-10.8c-1.6-3.2-3.9-6-6.4-8.7
		c-2.5-2.8-5.3-5.3-8.2-7.6c-5.9-4.6-12.5-8.3-19.6-10.7c-1.9-0.7-3.7-0.8-5.7-0.8c-1.5,0-1.6,2-0.5,2.7c1.5,0.9,2.9,1.7,4.6,2.2
		c1.6,0.6,3.2,1.2,4.8,1.9c3.1,1.4,6.2,3,9.1,4.9c5.6,3.6,10.7,8.2,14.8,13.4c3.7,4.7,6.5,10.6,4.2,16.6c-2.4,6.1-7.9,10-13.9,12.1
		c-6.7,2.3-14.1,3.1-21.1,3.3c-4.4,0.1-8.8-0.2-13.1-1c-1.2-0.4-2.4-0.9-3.6-1.4c-4.2-1.8-8.3-4-12.1-6.5c-1-0.7-1.9,1-0.8,1.7
		c1.4,0.9,2.9,1.8,4.3,2.6c-4.7-2-9.2-4.8-13-8.2c-4.7-4.1-9.3-9.7-10.6-16c-0.6-3.2-0.1-6.2,1.5-9c1.7-3,4.2-5.4,6.7-7.7
		c4.5-4.1,9.2-8.3,15.1-10.3c1.5-0.5,2.9-0.8,4.5-0.7c1.3,0.1,1.8-2,0.4-2.1c-3.4-0.3-6.6-0.1-9.8,1.2c-3.2,1.2-6,3.2-8.7,5.3
		c-5.6,4.4-12.2,9.8-13.9,17.2c-1.7,7.4,2.4,14.9,7,20.4c4.6,5.5,10.5,9.9,16.9,13.1c14.4,7,31.6,7.5,47.1,3.9
		c7.1-1.6,14.2-4.9,18.6-11C608.6,244.9,610.1,241.5,610.4,237.9z"/>
	<path fill-rule="evenodd" clip-rule="evenodd" fill="#FFFFFF" d="M557,200.2c0.5,0.1,1,0,1.5,0c0.8-0.1,1.6-0.9,1.5-1.7
		c-0.1-0.9-0.8-1.5-1.7-1.5c-0.5,0-1,0-1.5,0.2c-0.6,0.2-1.1,0.9-1.1,1.6C555.8,199.5,556.3,200,557,200.2z"/>
	<path fill-rule="evenodd" clip-rule="evenodd" fill="#FFFFFF" d="M631.5,236c4.8,5.1,12.7,7.9,19.6,7.7c7.1-0.2,14-4.4,16.2-11.4
		c1.1-3.6,0.4-7.5-1.7-10.5c-2.1-3.1-5.9-5.7-9.7-4.4c-1.4,0.5-1.7,2.8-0.2,3.3c2.1,0.8,4.2,1.6,5.6,3.3c1.4,1.8,2.1,3.9,1.7,6.2
		c-0.9,5.2-6,8.5-11,9c-5.4,0.5-11.5-1.3-15.8-4.7c-3.9-3.1-6.6-8.5-4.2-13.3c2.6-5.1,9.5-5.5,14.4-4.6c1.3,0.2,1.7-1.8,0.4-2.1
		c-5.6-1.2-12.7-1.8-17,3c-2.2,2.5-3.2,6.1-2.8,9.4C627.4,230.4,629.1,233.5,631.5,236z"/>
	<path fill-rule="evenodd" clip-rule="evenodd" fill="#FFFFFF" d="M702.5,261.6c-1.3-0.1-2.6,1.7-1.3,2.6c1,0.8,1.8,1.7,2.2,2.8
		c0.3,1,0.5,2.4,0.4,3.4c-0.1,0.3-0.1,0.7-0.2,1c-0.1,0.2-0.1,0.3-0.2,0.6c-0.3,0.7-0.8,1.3-1.3,1.9c-1,1.1-2.3,2-3.7,2.6
		c-3.4,1.6-7.3,2.2-11,2.5c-4,0.3-8.1,0.2-12.1-0.3c-4.2-0.5-8.3-1.4-12.4-2.5c-3.7-1-7.8-2-10.5-4.7c-2.3-2.3-2.7-5.6-0.7-8.2
		c2.3-3.1,6.3-4.5,9.8-5.7c8.1-2.9,18.6-4.7,26.1,0.5c0.7,0.5,1.6,0.5,2.2-0.1c0.5-0.6,0.6-1.7-0.1-2.2c-3.8-2.6-8.4-4.4-13-4.7
		c-4.9-0.4-9.6,0.4-14.3,1.8c-4.5,1.3-9.3,3-12.8,6.2c-3.4,3.2-4.9,8.1-2.8,12.4c2.2,4.5,6.6,6.7,11.1,8.2c4.5,1.5,9.2,2.6,13.9,3.3
		c4.8,0.8,9.6,1.1,14.4,0.8c4.4-0.3,9.1-0.9,13.2-2.7c4.2-1.8,8.2-5,8.9-9.8C708.9,267.2,707.1,262.1,702.5,261.6z"/>
	<path fill-rule="evenodd" clip-rule="evenodd" fill="#FFFFFF" d="M694.7,260.9c0.2,0.2,0.4,0.3,0.6,0.5c0.7,0.6,1.9,0.6,2.5-0.2
		c0.5-0.7,0.7-1.9-0.2-2.5c-0.6-0.4-1.3-1.1-2.1-1c-0.2,0-0.5,0-0.7,0.1c-0.4,0.2-0.8,0.5-0.9,1c-0.1,0.4,0,0.8,0.1,1.1
		C694.2,260.3,694.4,260.6,694.7,260.9z"/>
	<path fill-rule="evenodd" clip-rule="evenodd" fill="#FFFFFF" d="M632.5,255.7c-2.6-2-6-3-9.3-3.1c-1.7-0.1-3.3,0.1-5,0.4
		c-0.5,0.1-1.2,0.3-1.7,0.6c-5,0.7-10.8,2.2-12.5,7.6c-0.8,2.5-0.1,5.2,1.7,7.1c1.8,1.8,4.4,2.7,6.9,3.1c5.4,0.9,11.3,0.6,16.3-1.9
		c2.5-1.3,5-3.2,6-5.9C636,260.5,634.9,257.5,632.5,255.7L632.5,255.7z M627.7,265.6L627.7,265.6c-3.6,2.2-8,2.7-12.2,2.5
		c-3.2-0.2-9.1-0.7-9.1-5.1c0-2.2,1.5-4.3,3.2-5.5c1.5-1,3.1-1.6,4.9-1.9c0,0.1,0,0.1,0,0.2c0,0.4,0,0.9,0.4,1.1
		c0.5,0.4,0.9,0.6,1.5,0.6c0.5,0,1.1-0.2,1.7-0.3c1.1-0.2,2.2-0.4,3.4-0.5c2.1-0.1,4.4,0.2,6.4,1c1.4,0.6,3.7,1.7,3.6,3.5
		C631.3,263.1,629.2,264.7,627.7,265.6z"/>
	<path fill-rule="evenodd" clip-rule="evenodd" fill="#FFFFFF" d="M510.9,247c-4.1-4-6.2-9.7-6.2-15.3c0-2.7,0.6-5.5,1.7-8.1
		c0.8-1.8,1.6-3.7,1.4-5.7c-0.2-1.7-1.1-3.4-2.5-4.5c-1.6-1.3-3.4-1.9-5.4-1.9c-1.8,0-3.8,0.4-5.1,1.7c-0.2,0-0.4,0-0.6,0.1
		c-2.8,1.1-5,2.9-6.3,5.6c-1.3,2.8-1.7,6-1.1,9c1.2,6.8,6.1,13.1,11.2,17.5c3.2,2.8,6.9,4.6,11.1,5.4
		C511.3,251.3,512.5,248.5,510.9,247L510.9,247z M495,236.7L495,236.7c-3.3-4.2-6-9.3-4.5-14.8c0.5-2,1.8-4.5,3.6-5.8
		c0.2,0.3,0.5,0.6,1.1,0.6c0.8,0.1,1.6,0.1,2.4-0.1c0.8-0.2,1.6-0.4,2.4-0.4c1.1,0,2,0.3,2.7,1.1c0.8,0.9,0.5,2,0.1,3.2
		c-0.6,1.5-1.3,3-1.7,4.6c-1.6,5.5-1.1,11.8,1.2,17c0.3,0.8,0.7,1.5,1.1,2.3c-0.6-0.4-1.3-0.8-1.8-1.3
		C499,241.3,496.9,239.1,495,236.7z"/>
	<path fill-rule="evenodd" clip-rule="evenodd" fill="#FFFFFF" d="M613.4,220.5c0.1,1.5-0.2,2.8-0.3,4.3c-0.1,1.6,0.3,3.2,1.9,3.9
		c3,1.3,6.5-2.1,7.9-4.5c1.8-3,1.7-6.9,0.6-10.2c-0.6-1.8-1.6-3.6-3.3-4.7c-1.6-1-4.3-1.7-5.6,0c-0.9,1-0.3,2.5,1,2.8
		c0.7,0.2,1.4-0.1,2.1,0.1c0.6,0.2,1,0.6,1.3,1.1c0.9,1.2,1.3,2.9,1.5,4.4c0.3,2.8-0.8,6.1-3.6,7.4c-0.2,0.1-0.4,0.2-0.5,0.2
		c0-0.1,0-0.2,0-0.2c-0.1-0.7,0.1-1.4,0.1-2c0.1-1.5-0.1-3.1-0.4-4.6c-0.7-3-2.3-5.7-4.3-8c-0.7-0.7-1.9,0.4-1.3,1.1
		C612.2,214.3,613.2,217.4,613.4,220.5z"/>
	<path fill-rule="evenodd" clip-rule="evenodd" fill="#FFFFFF" d="M574.8,196.9c2.8-1,6.7-5.2,3.5-8c-0.6-0.5-1.4-0.8-2.2-0.9
		c-0.4-0.1-1,0-1.4,0.1c-0.3,0.1-0.5,0.2-0.7,0.4c-0.2,0.3-0.3,0.4-0.2,0.3c-0.2,0.3-0.3,0.5-0.3,0.8c-0.5-0.4-1.4-0.4-1.8,0.3
		c-1,1.5-1.8,3.3-1.1,5.1C571.3,196.8,573.1,197.5,574.8,196.9L574.8,196.9z M575.7,191.4L575.7,191.4c0.6,0.2,0.8,0.2,0.5,0.8
		c-0.4,0.7-1.1,1.3-1.8,1.7c-0.6,0.4-1.3,0.7-1.5-0.2c-0.2-0.9,0.4-1.9,0.8-2.7c0.1-0.1,0.1-0.3,0.1-0.4
		C574.3,191.1,575.1,191.2,575.7,191.4z"/>
	<path fill-rule="evenodd" clip-rule="evenodd" fill="#FFFFFF" d="M588.6,267.5c-5.1-0.4-10.3,0.7-15.1,2.3c-1,0.3-0.7,2.1,0.4,1.9
		c3.2-0.5,6.5-1.3,9.8-1.5c1.6-0.1,3.2-0.1,4.8,0.1c1.3,0.2,2.9,0.3,3.9,1.2c0.5,0.5,1.1,1.5,0.1,1.8c-0.6,0.2-1.3,0.1-1.9,0.1
		c-0.9,0-1.8,0-2.7,0.1c-3.4,0-6.9-0.1-10.3-0.2c-1.7-0.1-3.6,0-5.3-0.5c-0.2-0.1-0.3-0.1-0.5-0.2c0,0,0,0,0,0
		c0.1-0.1,0.1-0.2,0.2-0.3c0.9-0.5,1.1-1.6,0.3-2.3c-1.6-1.6-3.8-0.2-4.3,1.7c-0.5,1.9,0.6,3.8,2.4,4.6c2,0.9,4.5,0.8,6.7,0.9
		c2.4,0.1,4.8,0.2,7.2,0.2c2.4,0,4.8,0,7.2-0.1c2-0.1,4.1-0.8,4.6-3.1C597.2,269.5,592.2,267.8,588.6,267.5L588.6,267.5z
		 M572.2,272.1L572.2,272.1C572.2,272,572.2,272,572.2,272.1L572.2,272.1z M571.8,272.7L571.8,272.7
		C571.8,272.7,571.8,272.7,571.8,272.7C571.8,272.7,571.7,272.8,571.8,272.7z"/>
	<path fill-rule="evenodd" clip-rule="evenodd" fill="#FFFFFF" d="M736.8,275.4c-1.6-1.2-3.6-2-5.3-2.9c-2.8-1.5-8.1-4.5-10.1-0.2
		c0,0.1-0.1,0.1-0.1,0.2c-1.2-0.3-2,1.5-0.8,2.1c3.1,1.8-1,6.7-2.4,8.3c-2,2.4-4.6,4.5-7.5,5.7c-2.4,1-1.1,4.4,1.3,3.8
		c3.3-0.8,6.4,0,9.7,0.2c3.5,0.2,7-0.2,9.7-2.7c1.3-1.2,2.2-2.7,3.1-4.2c0.9-1.6,1.9-3.3,2.8-4.9
		C738.2,278.9,738.7,276.9,736.8,275.4L736.8,275.4z M733.2,279L733.2,279c-0.4,0.6-0.7,1.3-1.1,1.9c-0.7,1.2-1.3,2.4-2,3.6
		c-1.1,1.9-2.5,3.4-4.7,3.8c-2.5,0.5-5.1,0-7.7-0.3c1.5-1.3,2.8-2.8,4-4.5c1.3-1.8,2.5-3.9,2.6-6.2c0-1-0.2-2.1-0.7-3
		c1.3-0.2,2.8,0.5,4.1,1.1c1.2,0.6,2.3,1.2,3.5,1.8c0.6,0.3,1.2,0.6,1.8,0.9c0.2,0.1,0.3,0.2,0.5,0.3
		C733.4,278.7,733.3,278.9,733.2,279z"/>
	<path fill-rule="evenodd" clip-rule="evenodd" fill="#FFFFFF" d="M404.7,210c-0.8-0.8-1.9,0.5-1.1,1.3c4.8,4.6,9.9,9,15.1,13.2
		c2.6,2.1,5.2,4,7.8,6c1.4,1,2.9,2.1,4.3,3.1c-1.1-0.7-2.1-1.3-3.2-2c-5.8-3.8-11.3-8-16.6-12.5c-3-2.6-5.9-5.3-8.7-8.1
		c-1.1-1.1-2.7,0.7-1.6,1.8c9.9,9.9,21.1,18.5,33.3,25.6c3.4,2,6.9,4.1,10.7,4.9c0.6,0.1,1-0.7,0.5-1.1c-2.6-2.1-5.7-3.6-8.7-5.3
		c-0.9-0.5-1.7-1-2.6-1.5c0.3,0.1,0.5,0.3,0.8,0.4c0.6,0.3,1.2-0.5,0.7-1c-2.4-2.2-5.2-3.9-7.9-5.9c-2.7-2-5.4-4-8-6.1
		C414.5,218.9,409.5,214.5,404.7,210z"/>
	<path fill-rule="evenodd" clip-rule="evenodd" fill="#FFFFFF" d="M420.9,213.8c-2.1-1.7-4.1-3.4-6.2-5.1c-4-3.5-7.8-7.1-11.4-10.9
		c-1-1.1-2.5,0.6-1.5,1.7c3.7,3.9,7.5,7.6,11.5,11.1c2,1.7,4,3.4,6,5c1.1,0.8,2.1,1.7,3.2,2.5c1,0.7,2.1,1.5,3.3,1.8
		c0.6,0.1,1-0.6,0.7-1c-0.6-1-1.7-1.8-2.6-2.6C423,215.3,421.9,214.6,420.9,213.8z"/>
	<path fill-rule="evenodd" clip-rule="evenodd" fill="#FFFFFF" d="M407.1,196.9c2,2.4,4.2,4.7,6.5,6.8c1.1,1,2.3,2,3.6,3
		c1,0.8,2.4,2.2,3.8,2.1c0.5-0.1,0.8-0.5,0.6-1c-0.3-1.3-2-2.1-2.9-2.8c-1.2-0.9-2.3-1.9-3.4-2.9c-2.2-2-4.3-4.2-6.3-6.5
		C408.1,194.5,406.2,195.8,407.1,196.9z"/>
	<path fill-rule="evenodd" clip-rule="evenodd" fill="#FFFFFF" d="M409.2,191.2c2.4,1.6,4.7,3.3,7.3,4.4c0.6,0.2,1-0.5,0.6-0.9
		c-2-2-4.3-3.5-6.6-5.1C409.4,188.9,408.1,190.4,409.2,191.2z"/>
	<path fill-rule="evenodd" clip-rule="evenodd" fill="#FFFFFF" d="M557.9,176.4c1.2,0.7,3.3,1.9,4.7,1.2c0.4-0.2,0.5-0.7,0.2-1
		c-0.5-0.5-1.1-0.6-1.8-0.9c-0.7-0.3-1.3-0.6-2-0.9c-1.3-0.8-2.4-1.8-3.3-3.1c-0.7-1-2.3,0.1-1.6,1.1
		C555.2,174.3,556.4,175.5,557.9,176.4z"/>
	<path fill-rule="evenodd" clip-rule="evenodd" fill="#FFFFFF" d="M557.8,168.5c2.5,1,5,2.2,7.3,3.7c1.2,0.8,2.4,1.6,3.5,2.4
		c1,0.8,2,1.6,3.2,2.2c0.5,0.2,0.9-0.3,0.7-0.8c-1.4-2.3-4-3.9-6.2-5.3c-2.4-1.5-5-2.7-7.7-3.7C557.5,166.7,556.8,168.1,557.8,168.5
		z"/>
	<path fill-rule="evenodd" clip-rule="evenodd" fill="#FFFFFF" d="M565.6,165.3c3.4,2.1,6.7,4.2,10.1,6.3c1.7,1,3.3,2.1,5,3.1
		c1.6,1,3.3,2,5.1,2.6c0.6,0.2,0.9-0.7,0.5-1c-1.3-1.3-3-2.3-4.6-3.3c-1.7-1.1-3.4-2.1-5.2-3.2c-3.4-2.1-6.8-4.1-10.2-6.2
		C565.4,163.1,564.6,164.7,565.6,165.3z"/>
	<path fill-rule="evenodd" clip-rule="evenodd" fill="#FFFFFF" d="M580.8,162.8c4.1,2.8,8.2,5.7,12.4,8.5c2,1.4,4,2.7,6,4
		c1,0.7,2.1,1.4,3.1,2c1,0.6,2.1,1.3,3.3,1.6c0.5,0.1,1-0.5,0.7-1c-1.3-1.9-3.8-3.2-5.6-4.5c-2-1.4-4.1-2.8-6.1-4.1
		c-4.2-2.8-8.3-5.5-12.5-8.3C581,160.4,579.8,162.1,580.8,162.8z"/>
	<path fill-rule="evenodd" clip-rule="evenodd" fill="#FFFFFF" d="M589.8,160.3c5,3.1,10,6.2,15,9.3c2.5,1.5,4.9,3,7.4,4.5
		c1.3,0.8,2.5,1.5,3.8,2.2c1.2,0.7,2.6,1.5,4,1.8c0.6,0.1,1.1-0.6,0.7-1.1c-0.8-1.1-2.1-1.9-3.3-2.7c-1.2-0.8-2.4-1.5-3.6-2.3
		c-2.6-1.6-5.2-3.1-7.7-4.7c-5.1-3.1-10.2-6.2-15.3-9.2C589.6,157.5,588.6,159.6,589.8,160.3z"/>
	<path fill-rule="evenodd" clip-rule="evenodd" fill="#FFFFFF" d="M599.6,154.3c5,5.7,10.5,10.9,16.5,15.6c2.9,2.3,6,4.5,9.1,6.6
		c1.6,1,3.1,1.9,4.8,2.8c1.6,0.8,3.4,2.1,5.2,2.4c0.8,0.1,1.1-0.8,0.6-1.3c-1.2-1.2-3-2.1-4.5-3c-1.6-1-3.1-2.1-4.6-3.1
		c-3.2-2.1-6.2-4.2-9.2-6.6c-5.9-4.6-11.3-9.7-16.3-15.3c-0.5-0.5-1.4-0.4-1.9,0.1C599,153.1,599.1,153.8,599.6,154.3z"/>
	<path fill-rule="evenodd" clip-rule="evenodd" fill="#FFFFFF" d="M619.8,164.5c1.7,1.7,3.4,3.4,5.2,4.9c0.9,0.8,1.9,1.6,3,2.3
		c0.9,0.6,2,1.4,3.1,1.6c0.7,0.1,1.1-0.6,0.7-1.1c-0.5-1-1.6-1.7-2.4-2.4c-0.9-0.8-1.8-1.5-2.8-2.3c-1.8-1.5-3.5-3.1-5.1-4.8
		c-3.3-3.4-6.2-7.2-8.8-11.2c-0.9-1.4-2.9,0-2.1,1.4C613.4,157.1,616.4,161,619.8,164.5z"/>
	<path fill-rule="evenodd" clip-rule="evenodd" fill="#FFFFFF" d="M625,156.9c2.6,3,5.3,5.9,8.2,8.6c1.4,1.3,2.9,2.6,4.4,3.9
		c1.5,1.2,3,2.7,4.9,3.1c0.8,0.2,1.3-0.8,0.9-1.4c-0.9-1.6-2.6-2.6-4-3.8c-1.5-1.2-2.9-2.4-4.3-3.7c-2.8-2.6-5.4-5.3-7.8-8.2
		C626.2,154,623.8,155.5,625,156.9z"/>
	<path fill-rule="evenodd" clip-rule="evenodd" fill="#FFFFFF" d="M563.7,250.2c-3.1-1.6-6.2-3.4-9.2-5.2c-6-3.7-11.7-7.9-17-12.4
		c-0.8-0.7-1.9,0.5-1.1,1.2c5.4,4.6,11,8.8,17,12.6c3,1.9,6,3.7,9.1,5.3c3.1,1.6,6.2,3.5,9.6,4.3c0.5,0.1,1-0.7,0.5-1
		C569.9,253,566.7,251.7,563.7,250.2z"/>
	<path fill-rule="evenodd" clip-rule="evenodd" fill="#FFFFFF" d="M542.9,234.9c5.8,3.9,11.7,7.6,17.9,10.9c3,1.7,6.1,3.3,9.2,4.8
		c1.6,0.8,3.1,1.5,4.7,2.2c1.6,0.7,3.3,1.6,5,1.8c0.6,0.1,1-0.6,0.5-1c-1.3-1-2.9-1.7-4.3-2.4c-1.6-0.7-3.1-1.5-4.7-2.2
		c-3.2-1.5-6.3-3.1-9.4-4.8c-6.1-3.3-12.1-7-17.9-10.8C543.1,232.8,542.1,234.3,542.9,234.9z"/>
	<path fill-rule="evenodd" clip-rule="evenodd" fill="#FFFFFF" d="M562.6,237c3.6,2.8,7.3,5.5,11.2,8c1.9,1.2,3.9,2.4,5.9,3.6
		c2,1.1,4,2.3,6.2,2.8c0.6,0.1,0.9-0.7,0.5-1c-1.7-1.4-3.6-2.4-5.5-3.4c-2-1.1-4-2.3-5.9-3.5c-3.9-2.4-7.6-5-11.2-7.8
		C562.8,235,561.7,236.3,562.6,237z"/>
	<path fill-rule="evenodd" clip-rule="evenodd" fill="#FFFFFF" d="M582.7,241.6c-1.9-1.3-3.9-2.7-5.8-4c-1.1-0.8-2.5,0.8-1.4,1.6
		c2,1.4,4,2.8,6,4.1c1,0.7,1.9,1.3,2.9,2c0.9,0.6,1.8,1.4,3,1.5c0.6,0.1,0.9-0.5,0.7-1c-0.5-1-1.5-1.6-2.4-2.2
		C584.6,242.9,583.6,242.2,582.7,241.6z"/>
	<path fill-rule="evenodd" clip-rule="evenodd" fill="#FFFFFF" d="M596,238.8c0.5,0.2,1-0.4,0.5-0.8c-2.2-1.5-4.6-2.8-7-4.1
		c-1.1-0.6-1.9,1.2-0.8,1.7C591.1,236.8,593.5,237.9,596,238.8z"/>
	<path fill-rule="evenodd" clip-rule="evenodd" fill="#FFFFFF" d="M671.3,266c-4.3-2.3-8.7-4.5-13-6.8c-1.3-0.7-2.3,1.3-1,2
		c4.3,2.3,8.6,4.6,13,6.9c2.1,1.1,4.2,2.2,6.3,3.3c2,1,4.2,2.6,6.5,2.7c0.4,0,0.7-0.6,0.4-0.9c-1.3-1.8-3.8-2.8-5.7-3.8
		C675.7,268.3,673.5,267.1,671.3,266z"/>
	<path fill-rule="evenodd" clip-rule="evenodd" fill="#FFFFFF" d="M688.7,270.8c0.5,0,0.6-0.8,0.2-1c-2.7-1.5-5.6-2.5-8.2-4
		c-2.7-1.5-5.2-3.4-7.4-5.5c-0.9-0.9-2.1,0.6-1.3,1.5c2.3,2.3,4.9,4.4,7.7,6C682.5,269.4,685.5,270.7,688.7,270.8z"/>
	<path fill-rule="evenodd" clip-rule="evenodd" fill="#FFFFFF" d="M686.1,264.8c1.6,1.1,3.2,2.1,4.9,3.2c1.6,1,3.1,2.2,4.9,2.7
		c0.6,0.2,1.1-0.6,0.7-1.1c-1.2-1.4-2.8-2.4-4.3-3.5c-1.6-1.1-3.2-2.2-4.8-3.3C686,261.8,684.6,263.8,686.1,264.8z"/>
	<path fill-rule="evenodd" clip-rule="evenodd" fill="#FFFFFF" d="M462,253.6c1.1,0.7,3,1.9,4.3,1.2c0.3-0.1,0.3-0.5,0.1-0.8
		c-0.4-0.5-0.9-0.7-1.5-0.9c-0.7-0.3-1.3-0.6-1.9-0.9c-1.3-0.8-2.3-1.9-3.2-3.1c-0.6-1-2.1,0-1.5,1
		C459.3,251.5,460.5,252.7,462,253.6z"/>
</g>
<g>
	<path fill-rule="evenodd" clip-rule="evenodd" fill="#FFFFFF" d="M657.1,615.6C657.1,615.6,657.1,615.6,657.1,615.6
		C657,615.6,657.1,615.6,657.1,615.6C657.1,615.6,657.1,615.6,657.1,615.6z"/>
	<path fill-rule="evenodd" clip-rule="evenodd" fill="#FFFFFF" d="M807.6,768.3c-0.1,0-0.2,0-0.3,0.1c0,0,0,0,0,0
		C807.5,768.3,807.6,768.3,807.6,768.3z"/>
	<path fill-rule="evenodd" clip-rule="evenodd" fill="#FFFFFF" d="M947.3,744.6c-0.8-3-2.5-5.8-5.2-7.4c-3.3-2-7-2-10.6-2.5
		c-0.2,0-1.3-0.3-0.6-0.1c-0.3-0.1-0.7-0.2-1-0.3c-0.2-0.1-0.4-0.1-0.7-0.2c0,0-0.1,0-0.2-0.1c-0.1,0-0.2-0.1-0.2-0.1
		c-0.2-0.1-0.4-0.2-0.6-0.3c-0.3-0.2-0.6-0.4-0.9-0.7c-0.1-0.1-0.9-0.6-0.5-0.4c0,0-0.3-0.3-0.2-0.2c-0.1-0.1-0.1-0.2-0.1-0.2
		c-0.2-0.4-0.4-0.8-0.6-1.2c-1.5-3-2.4-6.4-4.9-8.7c-0.1-0.1-0.1-0.1-0.2-0.2c4.8-3.4,9-7.7,11.8-13c2.2-4.3,3.7-8.9,3.8-13.7
		c0.1-4.6-0.9-9-2.5-13.3c-1.6-4.1-3.9-7.9-6.3-11.5c-2.5-3.8-5.3-7.4-8.2-10.9c-6-7.2-12.8-13.7-20.2-19.4c-1.2-1-2.5-1.9-3.7-2.8
		c-1.5-1.7-3-3.3-4.6-4.8c-3.3-3.1-6.9-5.9-10.5-8.6c-7.2-5.5-15-10.5-22.9-14.9c-16-9.1-33.3-16-51.2-20.8
		c-17.8-4.8-36.2-7.4-54.6-7.7c-17.6-0.3-35.4,1.4-52.5,5.8c-8.2,2.1-16.4,4.9-24.1,8.6c-7.6,3.6-15.2,7.8-21.4,13.5
		c-1.6,1.5-2.9,3.1-4.1,4.9c-0.6,0.8-0.5,1.8,0,2.5c-0.7,1.8-1.1,3.6-1.4,5.4c-1,5.7,0.2,11.5,2.4,16.8c-4.1-4.1-10.7-5.9-15.6-2.1
		c-3.3,2.5-3.4,6.7-2.8,10.5c0.2,1.4,0.6,3,0.2,4c0-0.1-0.2,0.1-0.2,0.3c-1.8-1-3.8-1.8-5.8-2.3c-5.4-1.4-11-0.4-15.2,3.4
		c-3.6,3.2-6,8.1-5.8,13c0.3,6,4.1,10.4,9.3,13c2.6,1.3,5.2,2.2,8,2.9c2.8,0.8,5.7,1.4,8.2,2.6c2.2,1.1,3.8,2.5,4.6,4.9
		c0.3,0.8,0.4,1.8,0.3,2.7c-0.1,0.8-0.3,1.6-1,2.2c-1.6,1.6-4.1,2.1-6.1,3.2c-2.5,1.4-4.3,3.6-5.2,6.2c-0.8,2.3-1,4.8-0.5,7.2
		c-0.9,0.1-1.8,0.3-2.6,0.5c-2.6,0.7-5.3,1.8-7.7,3.1c-5,2.6-9.2,6.1-12.9,10.3c-1.9,2.2,0.3,5.7,2.9,5.8c3.5,0.2,7,0.4,10.4,0.7
		c-0.7,1-1.3,2.2-1.7,3.4c-1.2,3.6-0.9,7.4,1,10.7c0.1,0.2,0.3,0.5,0.4,0.7c-2,1.8-3.3,4.4-4.5,6.8c-1.2,2.6-2,5.4-2.5,8.2
		c-1,5.6-0.6,11.5,1,16.9c3.3,11.3,10.8,20.6,19.5,28.2c2.6,2.3,5.3,4.5,8.2,6.4c1.5,1,3,2,4.6,2.9c0.1,0.1,0.2,0.1,0.3,0.2
		c0.1,0.1,0.1,0.1,0.2,0.2c2.1,1.7,4.2,3.2,6.4,4.7c1,0.7,1.9,1.6,2.9,2.4c1.1,0.9,2.3,1.6,3.4,2.4c4.3,2.9,8.7,5.6,13.3,8.2
		c9.3,5.2,18.7,10.2,28.4,14.5c19.1,8.6,39,15.5,59.4,20.5c10.3,2.5,20.7,4.6,31.2,6.3c10.2,1.6,20.5,2.9,30.8,3.3
		c18.8,0.7,38.7-2.4,53.5-15c6.6-5.6,11.8-13.1,14.1-21.5c2.2-8,2.3-17.5-1.7-25c-0.4-0.8-1-1.6-1.5-2.4c-0.2-0.3-0.3-0.5-0.5-0.8
		c0.3-0.6,0.6-1.1,0.9-1.7c1.3-2.8,1.7-7.2-0.3-9.7c0.4-0.3,0.9-0.7,1.3-1.1c1.4-1.2,2.1-2.1,3.4-3.8c0.6-0.9,1.2-1.8,1.6-2.7
		c2.3,0.9,4.6,1.5,7,1.8c7.1,1,14.1-1.5,18.6-7.2c2-2.5,3.3-5.8,3.3-9.1c0-3.4-1.5-6.2-2.8-9.3c-0.1-0.3-0.3-0.7-0.4-1
		c0-0.1-0.1-0.2-0.1-0.3c0,0,0-0.1,0-0.2c-0.1-0.3-0.1-0.6-0.2-0.9c0-0.1,0-0.3-0.1-0.4c0-0.1,0-0.1,0-0.1l0,0c0,0,0,0.1,0,0.2
		c0-0.1,0-0.2,0-0.3c0-0.1,0.1-0.4,0.1-0.4c0-0.1,0.1-0.2,0.1-0.2c0.1-0.1,0.1-0.2,0.2-0.3c0.3-0.4,0.7-0.8,1.1-1.1
		c1-0.7,2.3-1,3.6-1c1.8,0,3.6,0.2,5.4,0.4c6.3,0.8,13,0.5,18.6-3.1c1.5-1,2.8-2,4-3.5c0.9-1.2,1.6-2.5,2.1-3.9
		C947.9,750.6,948.1,747.4,947.3,744.6L947.3,744.6z M891.3,751.4L891.3,751.4c-0.3,0.1-0.6,0.2-0.9,0.3c-0.7,0.2-1.5,0.4-2.2,0.6
		c-0.7-1.2-2.2-2.3-3.1-3.1c-0.3-0.3-0.5-0.5-0.8-0.8c1.4,0.6,3,1,4.5,1c0.7,0,1.1-0.9,0.5-1.4c-1.5-1.1-3.4-1.7-5-2.5
		c-1.7-0.8-3.4-1.6-5.1-2.6c-0.9-0.5-1.7-1-2.6-1.6c-1.8-1.6-3.7-3.3-5.5-4.9c-0.3-0.3-0.6-0.3-1-0.2c-0.1,0-0.1-0.1-0.2-0.1
		c-1.2-1.1-3.2,0.6-2,1.7c2,1.9,4.1,3.6,6.4,5.1c1.4,1.4,2.9,2.8,4.3,4.2c1.5,1.4,3,2.9,4.5,4.3c0.5,0.4,1,1,1.5,1.5
		c-4.8,0.8-9,0.8-14.2,0.5c-3.4-0.2-6.7-0.6-10.1-1c-0.1,0-0.3,0-0.4,0c-0.6-0.5-1.2-1.1-1.7-1.6c-1.6-1.6-3.1-3.4-4.6-5.1
		c-2.9-3.5-5.4-7.2-7.7-11.2c-0.9-1.6-3.4-0.3-2.5,1.2c2.3,4.1,4.9,8,7.9,11.7c1.2,1.5,2.5,2.9,3.7,4.3c-1.6-0.2-3.1-0.4-4.6-0.2
		c-3.7-0.4-7.5-0.8-11.2-1.3c-7.4-1-14.8-2.1-22.1-3.5c-14.4-2.6-28.8-6-42.9-9.9c-3-0.8-6.1-1.7-9.1-2.6c0-0.2,0-0.3-0.1-0.5
		c-0.2-0.4-0.1-0.8-0.3-1.2c-0.2-0.5-0.7-0.9-1-1.3c-0.6-0.7-1.3-1.4-2-2.1c-1.4-1.5-2.9-3-4.3-4.6c-2.8-3.1-5.6-6.2-8.3-9.4
		c-4.4-5.2-8.7-10.5-12.8-16c0.5,0.1,0.9,0.2,1.4,0.3c0.2,0.1,0.5,0.1,0.7,0.2c0.3,0.8,1,1.5,1.9,1.9c3.5,1.4,7,2.8,10.5,4.2
		c3.8,4.6,7.8,9.1,11.7,13.7c2.5,3,5.1,5.9,7.6,8.8c1.3,1.5,2.5,2.9,3.8,4.4c1.2,1.4,2.5,3.1,4.3,3.8c0.7,0.3,1.5-0.5,1.3-1.2
		c-0.5-1.8-1.9-3.2-3.1-4.6c-1.3-1.5-2.6-2.9-3.8-4.4c-2.6-3-5.2-5.9-7.9-8.9c-2.9-3.3-5.9-6.6-8.8-9.8c5.4,1.9,10.9,3.7,16.4,5.4
		c1.7,1.6,3.5,3.2,5.2,4.8c2.5,2.4,5,4.8,7.5,7.2c1.3,1.2,2.5,2.4,3.7,3.6c1.3,1.3,2.5,2.5,4.2,3.2c0.7,0.3,1.2-0.5,1-1.1
		c-0.7-1.6-1.9-2.8-3.2-4.1c-1.3-1.3-2.6-2.5-3.8-3.8c-2.5-2.5-5.2-4.9-7.8-7.2c-0.3-0.2-0.5-0.5-0.8-0.7c4.2,1.3,8.5,2.4,12.7,3.6
		c2.5,3.8,5.4,7.4,8.5,10.8c2.2,2.4,4.6,4.7,7.1,6.9c1.3,1.1,2.5,2.1,3.9,3.1c1.3,0.9,3,2,4.6,2.4c0.7,0.2,1.2-0.6,0.8-1.1
		c-0.5-0.7-1.2-1.2-1.8-1.8c-0.6-0.5-1.1-1.1-1.7-1.6c-1.2-1-2.5-2-3.7-3.1c-2.5-2.1-4.8-4.3-7-6.7c-2.3-2.5-4.4-5-6.4-7.7
		c1.5,0.4,2.9,0.8,4.4,1.2c8.2,2.1,16.5,4.1,24.9,6c2.4,4.3,5.1,8.4,8.1,12.3c1.8,2.3,3.8,4.5,5.8,6.6c1,1,2,2,3,2.9
		c1.1,1,2.2,2.1,3.7,2.4c0.7,0.1,1.3-0.4,1-1.1c-0.5-1.3-1.6-2.1-2.6-3.1c-1-1-2.1-1.9-3-2.9c-2-2-4-4.2-5.8-6.4
		c-2.6-3.1-4.9-6.5-6.9-9.9c0.6,0.1,1.2,0.3,1.8,0.4c9.2,1.9,18.6,3.7,27.9,4.6c7.7,0.8,15.6,1.2,23.4,0.8c-0.7,0.4-1.2,1.3-0.5,2.1
		c1.6,1.7,3.3,3.2,5.2,4.6c1.1,0.8,2.5,1.7,3.8,2.3c0.3,0.3,0.6,0.7,0.9,1c1.3,1.5,2.6,3,3.9,4.5c0.4,0.4,0.8,1,1.2,1.5
		c-0.8,0.4-1.5,0.7-2.3,1.1c-0.6,0.3-1.2,0.5-1.8,0.7C891.7,751.3,891.4,751.4,891.3,751.4L891.3,751.4z M733.2,723.7L733.2,723.7
		c-0.5-1.5-1.5-2.9-2.4-4.2c-1.1-1.6-2.2-3.2-3.3-4.8c-2.2-3.2-4.5-6.5-6.7-9.7c-3.5-5-6.9-10-10.3-15c2.6,1.2,5.2,2.3,7.9,3.4
		c4.7,5.8,9.4,11.7,14.2,17.5c2.3,2.9,4.7,5.8,7.1,8.6c1.2,1.4,2.4,2.9,3.6,4.3c1.3,1.5,2.4,3,4.1,3.8c0.6,0.3,1.7-0.1,1.4-1
		c-0.3-1-0.6-1.7-1.2-2.5c-0.5-0.7-1.1-1.4-1.6-2.1c-1.2-1.5-2.3-2.9-3.5-4.3c-2.4-2.9-4.8-5.8-7.3-8.7c-3.8-4.5-7.6-9-11.3-13.5
		c1.5,0.6,3,1.1,4.5,1.7c1.3,0.5,2.7,0.8,4.1,1.2c4.6,6.6,9.4,13,14.5,19.2c2.6,3.2,5.4,6.4,8.2,9.5c1.4,1.5,2.8,3.1,4.3,4.6
		c0.5,0.6,1.1,1.1,1.6,1.6C751.6,730.3,742.3,727.1,733.2,723.7L733.2,723.7z M700.5,709.9L700.5,709.9c0.1-0.2,0.1-0.4,0.1-0.6
		c-0.4-1.7-1.4-3.1-2.3-4.5c-0.9-1.5-1.9-3-2.8-4.5c-1.8-3-3.5-6-5.1-9c-2.7-5-5.2-10.1-7.4-15.2c0.8,0.5,1.7,0.9,2.6,1.4
		c0.5,0.2,0.8-0.3,0.6-0.7c1.4,0.9,2.8,1.8,4.2,2.6c3,6.1,6.4,12,10,17.8c2.1,3.3,4.3,6.5,6.6,9.6c1.1,1.5,2.2,3,3.4,4.5
		c1.2,1.4,2.5,3.3,4.2,4.2c0.6,0.3,1.7-0.1,1.4-0.9c-0.5-1.8-2-3.4-3.1-4.8c-1.1-1.5-2.3-3-3.4-4.5c-2.3-3.1-4.5-6.2-6.6-9.4
		c-2.9-4.5-5.7-9.1-8.2-13.8c3.7,2.1,7.4,4,11.1,5.8c4.3,6.4,8.5,12.7,12.8,19.1c2.1,3.2,4.3,6.4,6.4,9.6c1.1,1.6,2.1,3.2,3.2,4.8
		c0.2,0.2,0.3,0.5,0.5,0.7C719.2,718.2,709.7,714.2,700.5,709.9L700.5,709.9z M658.9,683.4L658.9,683.4c-0.4-0.4-0.8-0.7-1.1-1
		c-0.9-1-1.8-2-2.6-3c-1.9-2.5-3.7-5.6-4.9-8.8c-0.2-0.6-0.1-0.2-0.3-0.8c-0.1-0.4-0.2-0.7-0.3-1.1c-0.3-0.9-0.5-1.8-0.7-2.8
		c-0.4-1.8-0.5-3.3-0.5-5.1c0-4,0.7-7.5,2.3-11.2c0.2-0.4,0.3-0.8,0.5-1.1c2.9,5.5,5.4,11.1,7.7,16.8c1.3,3.3,2.5,6.7,3.5,10.2
		c0.3,0.8,0.5,1.7,0.8,2.5c-1.1-1.5-2.2-3-3.3-4.5c-2.1-3.1-4-6.3-5.7-9.6c-0.5-0.9-1.8-0.2-1.4,0.7c3.2,6.6,7.2,12.8,11.9,18.5
		c0.3,0.8,0.6,1.7,1,2.4c0.3,0.4,0.8,0.5,1.1,0.1c3.3,3.7,6.8,7.2,10.7,10.3c1,0.8,1.9,1.5,2.9,2.3c0.3,0.7,0.7,1.4,1.1,2.1
		c-2.9-1.7-5.7-3.4-8.4-5.2c-1.8-1.7-3.5-3.4-5.2-5.2c-4.8-5.2-9.1-10.8-12.8-16.9c-0.6-1-2.3-0.2-1.7,0.8c2.6,4.5,5.5,8.8,8.8,12.9
		C661.1,685.5,660,684.5,658.9,683.4L658.9,683.4z M672.1,667.2L672.1,667.2c2.5,2.6,5.1,5,8,7c1.3,3.5,2.8,7,4.4,10.5
		c-2.2-2.1-4.5-4.1-6.6-6.3c-2.9-3.1-5.5-6.5-7.7-10.1c-0.2-0.3-0.5-0.4-0.8-0.4c-1.2-2.6-2.4-5.2-3.6-7.8c2,2.1,4.1,4.1,6.3,6
		C671.8,666.3,671.8,666.8,672.1,667.2L672.1,667.2z M663.7,659.9L663.7,659.9c2.8,6.3,5.5,12.6,8.3,18.9c-3.1-4-6-8.1-8.7-12.4
		c-0.4-0.6-1.1-0.5-1.4-0.2c-0.2-0.5-0.4-1.1-0.6-1.6c-2.5-6.2-5.5-12.3-8.9-18.1c0.4-0.8,0.9-1.6,1.4-2.4c0.9,1.5,1.8,2.9,2.7,4.3
		c2.5,3.6,5.2,7,8.1,10.2C663.9,658.6,663.3,659.2,663.7,659.9L663.7,659.9z M677.7,691.8L677.7,691.8c0.3,0.6,0.5,1.2,0.8,1.8
		c-2-1.7-4-3.4-5.8-5.3c-2-2-4-4-5.9-6.2c-0.2-0.8-0.4-1.6-0.6-2.3c-0.4-1.8-0.9-3.6-1.5-5.3c-0.6-1.8-1.2-3.6-1.9-5.4
		c3.5,5.6,7.3,11,11.5,16.1c0.3,0.3,0.6,0.7,0.8,1C676,688.1,676.9,689.9,677.7,691.8L677.7,691.8z M684.1,701.5L684.1,701.5
		c0-0.1,0-0.1,0-0.2c0-0.3-0.1-0.6-0.2-0.9c1,0.6,2.1,1.2,3.1,1.7c0.8,0.4,1.2-0.8,0.6-1.2c-1.6-1.4-3.2-2.6-4.9-3.8
		c-0.1-0.3-0.3-0.7-0.4-1c-0.5-1.2-1.1-2.4-1.6-3.6c0.3,0.3,0.6,0.7,1,1c1.3,1.3,2.7,2.6,4,3.9c1.3,1.2,2.7,2.5,4.1,3.5
		c0.7,0.5,1.7-0.3,1.2-1.1c-0.2-0.3-0.4-0.7-0.6-1c-0.1-0.2-0.3-0.3-0.5-0.3c-1-1-2-1.9-2.9-2.8c-1.2-1.2-2.4-2.5-3.6-3.7
		c-2-2-3.9-4.1-5.7-6.2c-0.9-1.9-1.7-3.7-2.6-5.6c-0.8-1.6-1.5-3.2-2.3-4.8c1.1,1.4,2.2,2.8,3.4,4.2c2.8,3.1,5.9,6.3,9.6,8.3
		c0.8,1.6,1.6,3.3,2.4,4.9c1.6,3.1,3.3,6.2,5.1,9.2c0.9,1.5,1.8,3,2.8,4.5c0.5,0.8,1,1.5,1.5,2.2c-1.8-0.9-3.7-1.8-5.5-2.7
		C689.5,704.4,686.8,703,684.1,701.5L684.1,701.5z M882.4,733.5L882.4,733.5C882.4,733.5,882.4,733.5,882.4,733.5
		C882.4,733.5,882.3,733.5,882.4,733.5C882.3,733.5,882.4,733.5,882.4,733.5L882.4,733.5z M899.8,747.2L899.8,747.2
		c-0.3,0.2-0.7,0.5-1,0.7c-0.5-0.7-1.2-1.3-1.8-1.9c-1.3-1.5-2.7-3-4-4.4c-2.5-2.8-5-5.5-7.5-8.2c4-0.4,8-0.9,12-1.8
		c-0.4,0.5-0.6,1.2-0.1,1.8c1.4,2,2.8,4,4.2,6c0.9,1.2,1.8,2.6,2.8,3.8c-0.1,0.1-0.2,0.2-0.2,0.2c-0.4,0.4-0.8,0.8-1.3,1.3
		C902,745.5,900.9,746.4,899.8,747.2L899.8,747.2z M911.7,729.1L911.7,729.1c-0.3,1.3-0.7,2.5-1.1,3.7c-0.2,0.6-0.4,1.1-0.6,1.7
		c-0.1,0.3-0.2,0.5-0.4,0.8c0,0.1-0.4,0.8-0.4,0.8c-0.8,1.6-1.8,3.2-2.9,4.7c-0.7-1.2-1.6-2.2-2.3-3.3c-1.5-2-3-4-4.5-6
		c-0.1-0.2-0.3-0.3-0.4-0.4c4.5-1.1,8.9-2.5,13.1-4.3c0,0,0.1,0,0.1,0C912.1,727.5,911.9,728.1,911.7,729.1L911.7,729.1z
		 M928.4,698.4L928.4,698.4C928.5,698.3,928.4,698.4,928.4,698.4L928.4,698.4z M655.3,621.1L655.3,621.1c0-0.1,0-0.2,0-0.3
		c0,0.1,0.1-0.5,0.1-0.6c0.3-1.1,0.6-2.2,1-3.3c0.2-0.4,0.4-0.9,0.6-1.3c-0.2,0.4,0,0.1,0-0.1c0,0,0,0,0,0c0,0,0,0,0,0c0,0,0,0,0,0
		c0.1-0.3,0.3-0.5,0.4-0.8c0.4-0.8,0.9-1.5,1.5-2.2c1.4-0.9,2.8-1.9,4.1-2.8c2.9-2,6.5-4.2,10-6.1c7.2-3.8,14.8-6.8,22.2-9.1
		c16.2-4.8,33.1-6.9,49.7-7.1c9-0.1,18,0.4,26.9,1.3c9,1,17.4,2.5,26,4.5c17.5,4.1,34.5,10.3,50.6,18.1c7.9,3.8,15.6,8.3,23.1,13
		c7.6,4.8,14.7,10.3,22.2,15.1c0.2,0.1,0.3,0.2,0.5,0.3c6.1,5.3,11.6,11.3,16.6,17.7c5.3,6.8,10.2,14,13.8,21.8
		c0.8,1.8,1.6,3.7,2.3,5.5c0,0,0.3,0.8,0.3,0.9c0.1,0.5,0.3,0.9,0.4,1.4c0.3,1,0.5,2.1,0.7,3.1c0.2,0.9,0.3,1.7,0.3,2.6
		c0,0,0,0.8,0,1c0,0.6,0,1.2,0,1.8c0,0.9-0.2,1.9-0.3,2.8c0,0.1,0,0.2,0,0.2c-0.1,0.2-0.1,0.5-0.2,0.7c-0.2,0.6-0.3,1.2-0.5,1.8
		c-0.3,1-0.7,1.9-1.1,2.8c-0.1,0.2-0.2,0.3-0.2,0.5c0,0.1-0.1,0.2-0.2,0.3c-0.3,0.6-0.6,1.1-0.9,1.6c-0.5,0.9-1.1,1.7-1.7,2.5
		c-0.3,0.4-0.6,0.8-0.9,1.2c-0.1,0.1-0.2,0.3-0.4,0.4c0,0-0.5,0.5-0.5,0.5c-1.5,1.6-3.1,3-4.8,4.3c-0.4,0.3-0.7,0.5-1.1,0.8
		c0.1-0.1-0.8,0.5-0.9,0.6c-1,0.6-1.9,1.1-2.9,1.7c-1.9,1-3.8,1.8-5.8,2.6c-0.4,0.2-0.8,0.3-1.3,0.5c0,0-0.9,0.3-1,0.3
		c-1.1,0.3-2.2,0.7-3.2,1c-4.2,1.1-8.5,1.9-12.9,2.5c-1,0.1-2.1,0.2-3.1,0.3c-0.5,0-1,0.1-1.5,0.1c0,0-0.2,0-0.3,0
		c-0.3,0-0.7,0-1,0.1c-2.1,0.1-4.3,0.2-6.4,0.2c-4.4,0-8.8-0.2-13.3-0.5c-4.4-0.4-8.9-0.9-13.3-1.6c-2.2-0.3-4.4-0.7-6.6-1.1
		c-1.1-0.2-2.2-0.4-3.3-0.6c-0.5-0.1-1-0.2-1.5-0.3c0,0-0.2,0-0.3-0.1c-0.3-0.1-0.5-0.1-0.8-0.2c-9.6-1.9-19.1-4.1-28.6-6.5
		c-14.7-3.7-29.2-8-43.6-12.6c-0.3-0.2-0.6-0.5-0.9-0.7c-0.5-0.4-1-0.3-1.3,0c-4.1-1.3-8.1-2.6-12.2-3.9c-2.4-0.8-4.8-1.5-7.2-2.3
		c-0.8-0.3-1.7-0.2-2.5,0.2c-1.3-0.6-2.5-1.3-3.8-1.9c-2.6-1.1-5.1-2.4-7.6-3.4c-5.1-2.1-10.1-4.3-15.1-6.7
		c-9.2-4.4-18.3-9.5-26.7-15.6c-8.1-5.8-15-12-21.3-19.8c-3-3.7-5.1-6.7-7.2-10.9c-0.5-1-1-2-1.4-3.1c-0.5-1.3-0.5-1.3-0.9-2.7
		c-0.3-1-0.5-2.1-0.7-3.1c-0.1-0.5-0.2-1-0.2-1.6c0-0.2-0.1-0.5-0.1-0.7c0-0.1,0-0.2,0-0.3c0,0,0-0.1,0-0.2c0-1.2,0-2.3,0.1-3.5
		C655.1,622.2,655.2,621.6,655.3,621.1L655.3,621.1z M638.7,641.1L638.7,641.1c0.2-0.3,0.2-0.3,0.1-0.2c-0.2,0.2-0.1,0.1,0.1-0.1
		c0.1-0.1,0.7-0.6,0.6-0.5c0.7-0.5,1.8-0.7,2.7-0.7c2.1,0.1,4,1.2,5.9,2.2c-0.8,1.2-1.5,2.4-2.1,3.7c-2,4.1-3.3,8.5-3.7,13
		c0,0.2,0,0.3,0,0.5c-1.1-1.2-2.6-2.2-3.9-3.1c-0.3-0.4-0.6-0.8-0.9-1.2c0.4-0.5,0.7-1,0.9-1.5c0.9-1.9,0.9-3.9,0.7-5.9
		c-0.2-1.6-0.7-3.4-0.7-4.9c0-0.5,0-0.5,0.1-0.9C638.7,640.7,638.5,641.7,638.7,641.1L638.7,641.1z M612.4,662.6L612.4,662.6
		C612.4,662.8,612.3,662.9,612.4,662.6L612.4,662.6z M613.3,667.9L613.3,667.9C613.4,668,613.4,668,613.3,667.9L613.3,667.9z
		 M630.2,703.4L630.2,703.4c-0.1,0.3,0.5-0.7,0.6-0.8c0,0,0.1-0.1,0.1-0.1c0.3-0.3,0.5-0.5,0.8-0.8c1.6-1.4,3.9-2.3,5.7-3.8
		c4.1-3.3,4.5-9,2.2-13.5c-2.7-5.2-7.7-7.9-13.1-9.8c-2.5-0.9-5.1-1.5-7.5-2.5c-0.3-0.1-0.5-0.2-0.8-0.4c-0.1,0-0.3-0.2-0.4-0.2
		c-0.5-0.2-0.9-0.5-1.4-0.8c-0.5-0.3-1-0.7-1.4-1c-0.1-0.1-0.1-0.1-0.2-0.2c0,0-0.1-0.1-0.2-0.2c-0.2-0.3-0.5-0.5-0.7-0.8
		c-0.2-0.2-0.4-0.5-0.6-0.8c0,0,0-0.1-0.1-0.1c-0.2-0.4-0.4-0.7-0.5-1.1c0.1,0.2-0.2-0.8-0.3-1c-0.1-0.3-0.1-0.5-0.1-0.8
		c0,0,0-0.1,0-0.1c0,0,0-0.1,0-0.1c0-0.5,0-0.9,0.1-1.4c0-0.3,0.1-0.5,0.1-0.8c0.2-0.9,0.5-1.8,0.9-2.6c0-0.1,0.2-0.4,0.3-0.5
		c0.1-0.3,0.3-0.5,0.5-0.7c0.3-0.4,0.6-0.8,0.9-1.2c0.1-0.1,0.2-0.2,0.2-0.2c0.2-0.2,0.5-0.5,0.7-0.7c0.1-0.1,0.3-0.3,0.4-0.4
		c0.1-0.1,0.7-0.5,0.7-0.5c0.8-0.5,2-1,2.6-1.3c0.1,0,0.5-0.1,0.9-0.2c0,0,0.1,0,0.1,0c2.7,0.2,5.3,0.7,7.9,1.5
		c0.4,0.1,0.8,0.3,1.2,0.4c0,0,0.1,0.1,0.1,0.1c0.1,0.1,0.2,0.1,0,0c0.3,0.3,0.7,0.6,1.1,0.8c0.7,0.3,1.4,0.4,2.1,0.3
		c0.4,0.1,0.8,0.1,1.2,0.2c0.1,0.1,0.3,0.1,0.5,0.2c0.7,0.4,1.4,0.9,2.1,1.3c0.3,0.1,0.5,0.2,0.8,0.2c1.5,1.1,2.9,2.4,4.6,3.3
		c0.2,7.1,2.8,14.2,7.4,19.7c1.4,1.7,3.1,3.3,4.9,4.7c0.9,0.7,1.8,1.3,2.8,1.8c0.4,0.2,0.7,0.3,1.1,0.4c0.2,0.3,0.5,0.5,0.7,0.8
		c2.3,2.5,4.9,4.8,7.5,7.1c1.2,1.1,2.5,2.1,3.8,3c-1.9-0.4-3.8-0.9-5.7-1.3c-4.2-0.9-8.5-1.6-12.7-2.5c-1.3-0.3-2,1.7-0.7,2
		c4.2,1.1,8.4,2.4,12.6,3.5c2.1,0.6,4.2,1,6.2,1.6c1,0.3,2,0.5,3,0.7c1.1,0.3,2.3,0.7,3.4,0.5c0.1,0,0.2,0,0.3-0.1
		c2.2,1.4,4.4,2.7,6.7,4c5.8,3.3,11.8,6.3,17.9,9.2c-1.1,0.4-2.1,0.8-3.1,1.3c-1.8,0.8-4.4,1.7-5.3,3.5c-0.4,0.8,0,1.7,0.9,1.8
		c2,0.3,4.2-1.3,5.9-2.3c1.6-0.9,3.2-1.9,4.7-3c6.3,2.9,12.7,5.7,19.2,8.3c5.2,2.1,10.4,4.1,15.7,6c-0.1,0.2-0.2,0.4-0.3,0.6
		c-0.7,1.4-1.5,2.8-2.3,4.1c-0.8,1.4,1.2,2.7,2,1.4c0.9-1.4,1.7-2.8,2.6-4.2c0.2-0.3,0.4-0.7,0.7-1c8,2.8,16.1,5.4,24.2,7.8
		c13,3.8,26.3,7,39.6,9.5c0.1,0.3,0.3,0.5,0.5,0.8c0.6,1.1,1.4,2.1,2.2,3.1c1.5,2,3.1,4,4.8,6c-3.7-1.2-7.7-0.9-11,1.2
		c-2.9,1.8-5.1,4.4-7.3,7c-0.1,0.1-0.2,0.2-0.3,0.3c0,0,0,0,0,0c-0.2,0.3-0.5,0.5-0.7,0.8c-0.5,0.6-1.1,1.1-1.6,1.6
		c-0.3,0.2-0.5,0.5-0.8,0.7c-0.1,0.1-0.3,0.2-0.4,0.3c0,0,0,0,0,0c-0.7,0.4-1.3,0.8-2,1.1c-0.3,0.1-0.7,0.3-1,0.4
		c-0.2,0-0.3,0.1-0.5,0.1c-0.7,0.2-1.5,0.4-2.3,0.5c-0.3,0-0.6,0.1-0.9,0.1c0,0-0.6,0-0.7,0c-0.8,0-1.6,0-2.3-0.1
		c-0.4,0-0.7-0.1-1.1-0.1c0,0-0.3,0-0.4-0.1c-0.1,0-0.1,0-0.2,0c-0.8-0.2-1.5-0.4-2.3-0.6c-0.7-0.2-1.4-0.5-2-0.8
		c0,0-0.2-0.1-0.4-0.2c-0.1,0-0.2-0.1-0.2-0.1c-0.4-0.2-0.7-0.4-1.1-0.6c-3.2-1.9-5.7-4.6-8-7.5c-2.3-3-4.3-6.3-5.6-9.9
		c-0.3-0.9-1.8-0.4-1.6,0.6c0,0,0,0,0,0.1c-1.2-1.6-2.4-3-3.9-4.4c-1.6-1.4-3.4-2.7-5.3-3.6c-3.4-1.6-7.5-2-10.9-0.2
		c-1.8,1-3.2,2.5-4.7,3.9c-1.3,1.3-2.6,2.1-4.3,2.8c0.1,0-0.6,0.2-0.7,0.2c-0.4,0.1-0.8,0.2-1.2,0.3c-0.8,0.2-1.5,0.3-2.3,0.4
		c-0.1-0.2-0.2-0.4-0.3-0.6c-0.7-1.3-2.6-0.6-2.5,0.6c-0.8,0-1.7-0.1-2.5-0.2c-0.4-0.1-0.9-0.1-1.3-0.2c0,0,0,0,0,0
		c-0.2,0-0.4-0.1-0.7-0.1c-1.1-0.3-2.2-0.6-3.3-0.9c-1-0.3-2-0.7-3-1.2c-0.5-0.2-1-0.4-1.4-0.7c0,0-0.2-0.1-0.3-0.1
		c-0.3-0.1-0.5-0.3-0.8-0.4c-1.9-1.1-3.8-2.3-5.5-3.7c-1.3-1-2.7-2.4-4-4c-5.6-6.4-9.5-14.2-15.9-19.9c-3.2-2.8-7.1-5-11.2-6
		c-2.9-0.7-5.6-0.8-8.3-0.1c-2.1-0.9-4.8-0.7-6.9-0.6c-3.1,0.1-5.7,0.4-8.7,0.5c-2.8,0.1-5.5,0-8.2-0.5c-0.1,0-0.1,0-0.2,0
		c-0.1,0-0.1,0-0.3-0.1c-0.3-0.1-0.6-0.2-0.9-0.2c-0.7-0.2-1.4-0.4-2-0.7c-0.2-0.1-0.5-0.2-0.7-0.3c0,0-0.7-0.3-0.7-0.3
		c-0.6-0.3-1.1-0.6-1.7-1c-1.1-0.7-1.5-1.1-2.3-2c-0.1-0.1-0.2-0.3-0.4-0.5c0,0-0.1-0.1-0.1-0.1c0,0,0-0.1-0.1-0.1
		c-0.3-0.5-0.6-1.1-0.8-1.6c-0.1-0.1-0.1-0.3-0.2-0.4c0.2,0.4-0.1-0.4-0.1-0.5c-0.1-0.5-0.2-1-0.3-1.5c0-0.2-0.1-0.4-0.1-0.6
		c0-0.1,0-0.1,0-0.1c0,0,0-0.1,0-0.2c0-0.6,0-1.2,0.1-1.7c0-0.1,0-0.2,0-0.3c0,0,0.1-0.5,0.1-0.6
		C629.9,704.1,630.1,703.7,630.2,703.4L630.2,703.4z M803.4,771.2L803.4,771.2C803.4,771.2,803.4,771.2,803.4,771.2
		c0.5-0.5,1.1-1,1.7-1.5c0.3-0.2,0.5-0.4,0.8-0.6c0.2-0.1,0.4-0.2,0.6-0.3c0.3-0.2,0.6-0.3,0.9-0.4h0c0,0-0.1,0-0.1,0
		c0,0,0.1,0,0.1,0c0.1,0,0.2-0.1,0.3-0.1c0.1,0,0.1,0,0.2,0c0.1,0,0.7-0.1,0.8-0.2c0.1,0,0.3,0,0.3,0c0.3,0,0.6,0,0.9,0.1
		c0,0,0.3,0,0.4,0.1c0.1,0,0.4,0.1,0.4,0.1c0.4,0.1,0.8,0.3,1.2,0.4c0.2,0.1,0.3,0.1,0.5,0.2c0,0,0.1,0,0.1,0.1
		c0.5,0.3,1,0.6,1.5,0.9c0.4,0.2,0.7,0.5,1.1,0.8c0.1,0.1,0.7,0.6,0.7,0.5c0.7,0.7,1.4,1.4,2.1,2.1c0.8,0.8,1.6,1.7,2.5,2.5
		c0.5,2.6,1.3,5.1,2.4,7.5c0,0,0,0,0,0c-2.4-1.2-4.8-2.4-7.1-3.7C811.3,777.1,807.2,774.3,803.4,771.2L803.4,771.2z M805.9,769.1
		L805.9,769.1C806.2,768.8,806,769,805.9,769.1L805.9,769.1z M872.7,804.9L872.7,804.9c0.5-0.2,0.9-0.4,1.4-0.6
		c0,0.1,0.1,0.3,0.1,0.4c0,0.1,0,0.2,0,0.3c0,0,0,0,0,0.1c0,0.3,0,0.6-0.1,1c0,0.1,0,0.1,0,0.2c0,0,0,0.1,0,0.1
		c-0.1,0.3-0.2,0.5-0.3,0.8c-0.1,0.2-0.5,1-0.2,0.6c-0.4,0.6-0.7,1.3-1.1,1.9c-0.2,0.3-0.4,0.5-0.6,0.8c-0.1,0.2-0.3,0.3-0.4,0.5
		c0,0,0,0-0.1,0.1c-1,1.1-2.1,2-3.4,2.9c0,0-0.5,0.3-0.7,0.4c-0.3,0.2-0.7,0.4-1,0.6c-0.7,0.4-1.4,0.7-2.1,1
		c-0.4,0.1-0.7,0.3-1.1,0.4c-0.1,0-0.3,0.1-0.4,0.2c0,0-0.1,0-0.2,0c-0.8,0.2-1.5,0.4-2.3,0.6c-3.5,0.8-6.7,0.9-10.4,0.7
		c-2.5-0.1-5-0.5-7.5-0.8c0.5-0.8,1-1.5,1.5-2.3c0.8-1.3,1.9-2.8,2.3-4.3c0.1-0.4,0.2-0.9,0.1-1.3c1.4-0.1,2.8-0.1,4.1-0.2
		C858.1,808.5,865.6,807.8,872.7,804.9L872.7,804.9z M874.2,805.3L874.2,805.3C874.2,805.3,874.2,805.2,874.2,805.3
		C874.2,805.2,874.2,805.3,874.2,805.3L874.2,805.3z M874.2,805L874.2,805C874.2,804.9,874.2,804.9,874.2,805L874.2,805z M871.5,811
		L871.5,811C871.6,810.8,871.6,810.8,871.5,811L871.5,811z M862.8,816.4L862.8,816.4C862.9,816.4,863.1,816.4,862.8,816.4
		L862.8,816.4z M835.9,813L835.9,813c-1.3,2-2.7,3.9-4.1,5.7c-0.7,0.9-1.5,1.8-2.2,2.7c-0.4,0.5-0.8,0.9-1.1,1.3
		c-0.2,0.2-0.3,0.4-0.5,0.5c-0.1,0.1-0.1,0.1-0.1,0.1c-0.1,0.1-0.3,0.3-0.4,0.4c-1.6,1.7-3.2,3.4-4.9,5c-3.5,3.3-7.2,6.4-11,9.3
		c-0.9,0.7-1.9,1.4-2.8,2.1c-0.5,0.3-1,0.7-1.4,1c-0.6,0.4-0.5,0.3-1,0.7c-2.1,1.3-4.2,2.6-6.3,3.8c-2.4,1.3-4.8,2.5-7.2,3.7
		c-1.2,0.6-2.3,1.1-3.5,1.7c-0.3,0.2-0.6,0.3-0.9,0.5c-0.3-0.8-0.7-1.5-1.1-2.3c-0.8-1.5-1.7-3.1-2.6-4.6c-1.9-3.1-3.8-6.1-5.8-9
		c-3.8-5.7-7.9-11.2-12.4-16.4c-8-9.4-16.8-18.1-26.4-25.8c10.3,3.5,20.8,6.3,31.4,8.6c21.9,4.8,44.3,7.2,66.8,7.1
		C837.4,810.5,836.7,811.8,835.9,813L835.9,813z M734.6,802.5L734.6,802.5c-0.1,0-0.2,0-0.3-0.1c-3.7-0.8-7.3-1.8-10.9-3.2
		c-3.6-1.4-6.4-2.7-9.6-4.6c-3.3-1.9-6.4-4-9.4-6.3c-2.6-2-5-4.3-7.4-6.5c1.1-0.2,2.2-0.5,3.4-0.8c1-0.3,2-0.7,3-1.1
		c0.6-0.3,1-0.6,1.4-0.9c1.7,0.7,3.3,1.3,5,1.9c1.7,0.9,3.5,1.7,5.2,2.6c1.7,0.8,3.3,1.5,5,2.3c0.9,0.7,1.9,1.4,2.8,2.1
		c2.6,2,5.3,4,7.9,6.1c3.9,3.1,7.5,6.2,11.1,9.5c-0.9-0.1-1.8-0.1-2.6-0.2c-0.9-0.1-1.8-0.2-2.8-0.4c-0.4-0.1-0.9-0.1-1.3-0.2
		C735,802.6,734.8,802.6,734.6,802.5L734.6,802.5z M688,776.3L688,776.3c-0.2,0-0.3,0-0.5,0c-3,0.2-6,0.1-8.9-0.2
		c-1.5-0.1-2.9-0.3-4.4-0.6c-0.3-0.1-0.7-0.1-1-0.2c0,0-0.1,0-0.1,0c-0.2,0-0.4-0.1-0.5-0.1c-0.7-0.1-1.4-0.3-2.1-0.5
		c-2.9-0.7-5.7-1.7-8.5-2.8c-0.7-0.3-1.3-0.6-2-0.8c-0.6-0.3-1.6-0.7-1.9-0.9c-0.9-0.4-2.5-1.3-3.6-2c-5.2-3.1-9.9-6.7-13.8-11.4
		c-4.1-4.9-6.5-11.8-3.7-17.8c1,0.8,2,1.6,3.1,2.4c2.5,6.1,6.2,11.6,11,16.1c2.4,2.3,5.1,4.4,8,6.1c1.5,0.8,3,1.6,4.6,2.2
		c1.5,0.6,3.2,1.2,4.8,0.9c0.6-0.1,0.9-0.9,0.4-1.3c-1.1-1.1-2.7-1.7-4.1-2.4c-1.4-0.7-2.8-1.4-4.1-2.2c-2.7-1.6-5.4-3.4-7.8-5.4
		c-3.8-3.3-7.2-7.3-9.7-11.7c2.1,1.5,4.3,2.9,6.4,4.3c6.4,4.2,12.8,8.3,19.4,12.2c5.5,3.3,11,6.4,16.7,9.5c-2.2-0.3-4.4-0.8-6.3-1.7
		c-1.5-0.7-2.6,1.7-1.3,2.5c2.9,1.8,5.9,3.1,9.3,3.4c1.7,0.2,3.4,0.2,5,0c0.3,0,0.6-0.1,1-0.2c1,0.5,1.9,1,2.9,1.4
		c-0.1,0-0.3,0.1-0.4,0.1c-1.4,0.3-2.9,0.6-4.3,0.8c-0.7,0.1-1.5,0.2-2.2,0.2c-0.3,0-0.7,0.1-1,0.1C688.2,776.3,688,776.3,688,776.3
		L688,776.3z M617.7,742.2L617.7,742.2c-1.3-2-1.9-4.5-1.4-6.7c0.3-1.3,0.8-2.4,1.5-3.5c0.4-0.6,0.8-1.1,1.2-1.6c0,0,0-0.1,0.1-0.1
		c1.9,0.1,3.7,0.3,5.6,0.4c1.7,0.1,3.5,0.2,5.2,0.2c0.7,1.2,1.4,2.3,2.3,3.4c0.8,1.1,1.8,2.1,2.8,3.1c-2.6,3.6-3.2,8-2.5,12.3
		c-1.2-0.3-2.5-0.5-3.7-0.8c-1.6-0.4-3.3-1-4.8-1.7C621.4,746,619.1,744.3,617.7,742.2L617.7,742.2z M642.3,724.6L642.3,724.6
		c5.7,8,12.2,15.5,19.4,22.2c-1.2-0.7-2.3-1.5-3.5-2.2c-3.2-2-6.3-4.1-9.4-6.3c-0.7-0.5-1.4-1-2.1-1.4c-3.6-4-6.7-8.4-9.3-13.2
		C639,724.1,640.6,724.4,642.3,724.6L642.3,724.6z M666.2,722.9L666.2,722.9c0.4,0,0.8,0,1.2,0.1c0.2,0,0.4,0.1,0.6,0.1
		c0,0,0.2,0,0.3,0.1c0.3,0,0.5,0.1,0.8,0.2c0.2,0.9,0.3,1.8,0.4,2.6c0.1,0.6,0.6,0.8,1.1,0.7c0.8,1.2,1.7,2.4,2.6,3.5
		c0.2,0.4,0.4,0.7,0.7,1.1c1.7,2.7,3.4,5.5,5.1,8.2c2.9,4.7,5.7,9.7,9.2,14.2c0.5,1,1,1.9,1.5,2.9c0.9,1.7,1.8,3.4,2.7,5.1
		c0.8,1.5,1.5,3.7,3,4.6c0.5,0.3,1.1,0,1.2-0.6c0.1-1.7-1.2-3.5-2-4.9c-0.9-1.8-1.9-3.5-2.8-5.3c-1.8-3.5-3.7-7-5.5-10.4
		c-0.2-0.3-0.4-0.5-0.7-0.6c-1.4-2.2-2.9-4.4-4.3-6.6c-0.4-0.6-0.8-1.2-1.2-1.8c0.5,0,0.7-0.6,0.4-1c-0.8-1-1.8-1.9-2.8-2.7
		c-0.5-0.8-1-1.6-1.6-2.4c-0.8-1.3-1.7-2.6-2.6-4c-0.3-0.4-0.6-0.9-0.9-1.4c0.7,0.3,1.3,0.7,2.2,1.2c0.8,0.5,1.5,1,2.2,1.5
		c0.4,0.3,0.7,0.6,1,0.8c0,0,0.2,0.2,0.2,0.2c0.2,0.1,0.4,0.3,0.5,0.4c6,5.5,9.5,13,14.6,19.1c0.8,1,1.7,1.9,2.6,2.9
		c-1-0.4-2.4,0.2-2,1.5c1.4,4.9,3.6,9.4,6.6,13.5c1.4,2,3.1,3.9,4.8,5.6c0.5,0.5,1.1,1,1.6,1.5c-3-1.8-6.1-3.6-9.2-5.2
		c-6.8-3.5-13.4-7.3-20-11.1c-1-0.6-1.9-1.1-2.9-1.7c-0.2-0.2-0.5-0.4-0.7-0.6c-0.8-0.7-1.6-1.4-2.4-2.1c-1.6-1.4-3.2-2.8-4.8-4.2
		c-0.6-0.5-1.2-1-1.7-1.5c-0.7-1.4-1.5-2.7-2.3-3.9c-0.7-1.3-1.4-2.5-2.2-3.8c1,1,1.9,2.1,2.9,3.1c2.6,2.6,5.3,5.2,8.1,7.6
		c0.8,0.7,1.6,1.4,2.4,2c0.7,0.9,1.4,1.7,2.1,2.6c0.7,0.8,1.8,2.3,3,2.2c0.5,0,0.8-0.2,1-0.4c0.2,0.1,0.5,0.3,0.7,0.4
		c0.7,0.4,1.5-0.6,1.1-1.3c-0.3-0.5-0.6-1-1-1.4c-0.1-0.1-0.3-0.1-0.4-0.1c-1-0.9-2.1-1.8-3.2-2.7c-3.1-3.8-6-7.8-8.5-12
		c-1.3-2.2-2.6-4.5-3.7-6.7c1.4,1.5,2.8,2.9,4.2,4.4c1.6,1.6,3.3,3.2,5,4.7c0.9,0.8,1.8,1.5,2.7,2.3c0.9,0.7,1.9,1.5,3,1.7
		c0.5,0.1,1-0.3,0.7-0.8c-0.5-0.9-1.3-1.6-2.1-2.3c-0.9-0.8-1.7-1.5-2.6-2.2c-1.8-1.6-3.6-3.2-5.3-4.8c-3.1-3-6-6.2-8.8-9.5
		c-0.2-0.5-0.4-1-0.6-1.4c1.3-0.1,2.6-0.3,3.8-1C665.5,722.8,665.8,722.9,666.2,722.9L666.2,722.9z M725.9,761.9L725.9,761.9
		c2.5,4.3,5.1,8.6,7.9,12.7c2,3,4,5.9,6.2,8.8c0.7,1,1.5,2,2.2,2.9c-0.8-0.3-1.7-0.6-2.5-0.8c-2.8-0.9-5.6-1.9-8.3-2.9
		c0-0.1,0-0.2-0.1-0.3c-0.8-1.5-2.1-2.7-3.2-3.9c-1.2-1.2-2.4-2.4-3.6-3.7c-2.4-2.5-4.8-5-7.1-7.6c-1.9-2.1-3.7-4.3-5.5-6.5
		c1.2,0.4,2.5,0.7,3.8,1C719,762.2,722.5,762.4,725.9,761.9L725.9,761.9z M732.3,759.7L732.3,759.7c2.2,1.9,4.5,3.8,6.9,5.5
		c1.9,3.4,3.9,6.7,6.1,9.9c-0.7-0.4-1.4-0.8-2.1-1.2c-2.1-1.4-4-3.2-5.6-5.2c-0.8-1.1-2.4,0.3-1.6,1.4c1.7,2.1,3.8,3.9,6,5.4
		c1.6,1,3.4,2,5.2,2.6c0.3,0.4,0.5,0.7,0.8,1.1c2.3,3.2,4.7,6.3,7.3,9.2c0.8,0.9,1.5,1.8,2.3,2.6c-3.7-1-7.3-2.1-11-3.2
		c-0.3-0.5-0.7-0.9-1-1.3c-1-1.5-2.1-2.9-3.2-4.3c-2.2-2.9-4.3-5.9-6.3-8.9c-2.6-3.9-5.2-7.9-7.6-12
		C730,760.9,731.2,760.3,732.3,759.7L732.3,759.7z M739.1,758.5L739.1,758.5c0,0,0.1,0.1,0.1,0.1c3.8,2.5,7.6,5.1,11.4,7.6
		c0.7,0.5,1.4,0.9,2.1,1.4c1.1,1.8,2.3,3.6,3.4,5.3c-1.5-1-3.2-1.9-4.7-2.8c-2.3-1.4-4.6-2.8-6.8-4.3c-0.8-0.6-1.7-1.2-2.5-1.8
		C741.1,762.3,740.1,760.4,739.1,758.5L739.1,758.5z M749.8,772.2L749.8,772.2c2.2,1.2,4.9,2.9,7.4,3.2c0.1,0,0.3,0,0.4-0.1
		c0.5,0.8,1,1.5,1.5,2.3c1.8,2.9,3.7,5.8,5.5,8.6c1.8,2.7,3.5,5.7,5.8,8.1c-2.5-0.6-5.1-1.2-7.6-1.8c-0.5-0.6-1.1-1.2-1.6-1.8
		c-1.2-1.4-2.4-2.8-3.6-4.2c-2.5-2.9-4.9-6-7.1-9.1c-1.9-2.6-3.6-5.2-5.3-7.9C746.7,770.4,748.3,771.3,749.8,772.2L749.8,772.2z
		 M706.8,758.5L706.8,758.5c2.6,3.6,5.5,7,8.4,10.4c2.3,2.7,4.7,5.3,7.2,7.8c1.2,1.3,2.5,2.5,3.8,3.6c0.2,0.2,0.4,0.4,0.6,0.5
		c-2.5-0.9-5-1.9-7.5-2.8c-2.4-0.9-4.7-1.9-7.1-2.9c0.2-0.2,0.3-0.5,0.2-0.8c-0.3-1.1-1.2-1.7-2-2.5c-0.9-0.8-1.8-1.6-2.6-2.4
		c-1.7-1.6-3.3-3.4-4.7-5.3c-2.8-3.8-5-8.1-6.3-12.6c0-0.1-0.1-0.2-0.1-0.2C699.8,754.3,703.1,756.7,706.8,758.5L706.8,758.5z
		 M658.4,724.1L658.4,724.1C658.4,724.1,658.4,724.1,658.4,724.1c2.5,6.4,5.6,12.4,9.2,18.1c-0.8-0.7-1.5-1.5-2.3-2.3
		c-3.8-3.8-7.4-7.9-10.8-12.1c-0.6-1.1-1.3-2.2-1.9-3.3c0.8-0.1,1.6-0.1,2.4-0.2C656.1,724.3,657.3,724.2,658.4,724.1L658.4,724.1z
		 M649.5,724.7L649.5,724.7c2.4,4.1,4.8,8.2,7.1,12.4c0.5,0.9,1,1.7,1.5,2.6c-0.1-0.1-0.3-0.3-0.4-0.4c-4.4-4.6-8.6-9.4-12.4-14.4
		C646.7,724.8,648.1,724.8,649.5,724.7L649.5,724.7z M635.6,724.5L635.6,724.5c1.2,2.4,2.5,4.6,4,6.8c-0.9-0.9-1.8-1.8-2.6-2.8
		c-0.2-0.3-0.4-0.5-0.6-0.8c-0.1-0.1-0.5-0.8-0.5-0.7c-0.4-0.6-0.7-1.2-1-1.8c-0.2-0.4-0.3-0.7-0.5-1.1c0-0.1-0.2-0.6-0.2-0.6
		c-0.1-0.3-0.2-0.6-0.3-1c0.6,0.3,1.3,0.5,2,0.7C635.5,723.5,635.3,724,635.6,724.5L635.6,724.5z M795.1,798.8L795.1,798.8
		c-3.1-0.4-6.2-0.9-9.4-1.4c-3.4-0.6-6.1-1.1-9.1-1.7c-1.5-0.3-3.1-0.6-4.6-1c0.2-0.2,0.3-0.6,0.2-1c-1.2-3.2-3.2-6.1-5-8.9
		c-1.8-2.9-3.7-5.8-5.5-8.6c-0.9-1.5-1.9-2.9-2.8-4.4c1,0.6,2.1,1.1,3.1,1.5c0.5,0.2,0.9-0.5,0.5-0.8c-1.9-1.9-4.1-3.5-6.4-5
		c-1.9-2.9-3.7-5.8-5.6-8.7c-0.5-0.7-1.2-1.1-2-0.7c-0.7,0.3-1.1,1.3-0.7,2c0.7,1.1,1.4,2.2,2.1,3.3c-3.2-2.1-6.4-4.3-9.6-6.4
		c-0.8-0.5-1.6,0.3-1.6,1c0-0.1-0.1-0.2-0.1-0.2c-0.9-1.8-3.6-0.4-2.7,1.3c0.1,0.1,0.2,0.3,0.2,0.5c-0.5-0.5-1.1-0.9-1.6-1.4
		c0.9-0.7,1.7-1.5,2.5-2.5c1.3-1.5,2.3-3.4,4.2-4.3c1.1-0.5,2.4-0.7,3.7-0.7c-0.4,0.6-0.4,1.4,0.4,1.9c2.8,1.8,5.5,3.7,8.2,5.6
		c2.2,1.6,4.5,3.2,6.9,4.5c1.4,4.6,3.5,8.9,7.2,12.4c1.9,1.9,4.1,3.4,6.4,4.5c1.9,2.1,3.8,4.2,5.7,6.3c1.4,1.6,2.8,3.1,4.2,4.7
		c1.2,1.3,2.6,3.2,4.3,3.9c0.5,0.2,1.1-0.3,1-0.9c-0.5-1.8-2.1-3.3-3.4-4.7c-1.4-1.6-2.8-3.1-4.2-4.7c-0.8-0.9-1.7-1.9-2.5-2.8
		c2.6,0.6,5.4,0.8,8.1,0.5c0.4,0,0.8-0.1,1.2-0.2c2.4,4.6,5.3,9,8.6,13.1c1.3,1.6,2.7,3.2,4.2,4.7
		C799.2,799.3,797.2,799,795.1,798.8L795.1,798.8z M759.1,757.8L759.1,757.8c0.1,0.6,0.3,1.2,0.4,1.8c-1.5-1.2-3.1-2.4-4.7-3.5
		c-2.3-1.6-4.5-3.3-6.8-4.9c1.4,0.5,2.8,1.2,4,2.1c2,1.5,3.8,3.2,5.7,4.7C758.3,758.4,758.8,758.2,759.1,757.8L759.1,757.8z
		 M612.7,721.9L612.7,721.9c0.1,0,0.1-0.1,0.1-0.1c0,0,0,0,0.1,0c1-0.7,2.1-1.3,3.2-1.9c1-0.5,2.1-1,3.2-1.5
		c0.5-0.2,1.1-0.4,1.6-0.6c0,0,0.4-0.1,0.6-0.2c0,0,0.1,0,0.2-0.1c0.3-0.1,0.6-0.2,0.9-0.3c0.3-0.1,0.6-0.2,1-0.4
		c0.2-0.1,0.5-0.2,0.1,0c0.7-0.2,1.7-0.6,2.1-0.7c-0.1,0-0.1,0,0,0c0.2,0.4,0.5,0.7,0.8,1c0.3,0.4,0.7,0.9,1.1,1.3
		c-0.2,0.5-0.4,1.1-0.5,1.7c-0.2,1.6,0,3.3,0.4,4.9c0,0.1,0,0.1,0,0.2c-0.8-0.1-1.6-0.2-2.4-0.3c-2.4-0.4-4.9-0.7-7.3-1
		c-2.2-0.3-4.4-0.6-6.6-0.9c0.3-0.2,0.5-0.4,0.7-0.5C612.2,722.3,612.5,722.1,612.7,721.9L612.7,721.9z M873.6,844.4L873.6,844.4
		C873.5,844.5,873.5,844.6,873.6,844.4L873.6,844.4z M877.1,826.7C877.1,826.7,877.1,826.7,877.1,826.7L877.1,826.7L877.1,826.7z
		 M875.4,818.4L875.4,818.4c0.4,1.3,1,3.6,1.3,5.3c0.2,0.9,0.3,1.7,0.3,2.6c0,0,0,0.1,0,0.1c0,0.2,0,0.5,0,0.7c0,0.5,0,1,0,1.5
		c0,1.9-0.2,3.9-0.5,5.8c0,0.1-0.2,1.1-0.2,1.1c-0.1,0.4-0.2,0.7-0.2,1.1c-0.2,1-0.5,2-0.8,2.9c-0.3,0.9-0.6,1.7-0.9,2.5
		c-0.2,0.5-0.4,0.9-0.6,1.4c-0.1,0.2-0.2,0.4-0.3,0.6c0,0.1-0.1,0.2-0.1,0.2c-0.9,1.7-1.9,3.4-3.1,5c-0.6,0.8-1.2,1.6-1.9,2.4
		c-0.1,0.1-0.2,0.2-0.3,0.4c-0.1,0.1-0.2,0.2-0.2,0.2c-0.4,0.4-0.8,0.9-1.2,1.3c-1.4,1.4-3,2.8-4.6,4c-0.8,0.6-1.6,1.2-2.5,1.8
		c0,0-0.1,0-0.1,0.1c0,0-0.1,0.1-0.1,0.1c-0.2,0.1-0.4,0.3-0.6,0.4c-0.5,0.3-0.9,0.6-1.4,0.8c-1.8,1.1-3.7,2-5.6,2.9
		c-0.9,0.4-1.8,0.8-2.7,1.1c-1.2,0.5-1.8,0.7-2.5,0.9c-9.1,3-18.1,3.8-27.4,3.7c-9.8-0.1-19.7-1.3-29.4-2.7
		c-10.2-1.5-19.6-3.2-29.5-5.5c-19.8-4.6-39.2-10.7-58-18.5c-9.3-3.8-18.5-7.9-27.4-12.4c-4.5-2.3-9-4.7-13.4-7.1
		c-2.3-1.2-4.5-2.4-6.8-3.6c-1.2-0.6-2.3-1.3-3.5-1.9c-1.2-0.6-2.3-1-3.5-1.6c-0.5-0.3-1.1-0.6-1.6-0.9c0.1-0.4,0.1-0.9-0.1-1.3
		c-0.8-1.2-2-2.4-3.1-3.3c-1.2-1-2.4-1.9-3.6-2.9c-2.4-1.8-4.8-3.6-7.1-5.5c-4.2-3.4-8.1-7.2-11.5-11.5c-6.2-7.8-10.4-17.5-9.5-27.7
		c0.2-2.9,0.8-5.6,1.9-8.3c0.8-2.1,2-3.9,3.2-5.9c1.2,1,2.5,1.9,3.8,2.6c2,1.1,4.1,1.9,6.2,2.5c2.1,0.6,4.4,1.3,6.6,1.4
		c0.4,0,0.8,0,1.1-0.2c0,0,0,0.1,0.1,0.1c2.9,6.2,7.9,11.4,13.2,15.6c0.1,0.1,0.2,0.2,0.3,0.3c-0.2,0.3-0.3,0.6,0,0.9
		c2,2.1,4,4.1,6,6.2c2,2,3.9,4,6.1,5.8c0.5,0.4,1-0.3,0.7-0.8c-1.7-2.2-3.7-4.2-5.7-6.2c-1-1-1.9-2-2.9-3c9.5,5.9,20.9,9,32,9
		c2.9,0,5.8-0.2,8.7-0.6c3.7,6.8,10,12.4,16.4,16.7c6.5,4.3,14,7.6,21.7,9.4c2.3,0.5,4.6,1,6.9,1.3c2.1,0.3,5.1,1,7.1,0
		c0.4,0.1,0.8,0.1,1.3,0.2c0,0.2,0.1,0.5,0.4,0.7c4.4,4.2,9,8.3,14,12c3.6,4.3,7,8.8,10.2,13.4c-0.3-0.2-0.7-0.5-1-0.7
		c-3.4-2.5-6.7-4.9-9.9-7.5c-6.6-5.2-13-10.8-19.1-16.6c-1-0.9-2.6,0.4-1.6,1.4c6.1,5.9,12.4,11.6,19,16.9c3.3,2.7,6.6,5.3,10.1,7.7
		c2,1.5,4.1,3,6.3,4.3c0.1,0.1,0.1,0.2,0.2,0.3c1,1.6,2,3.2,3,4.8c0.9,1.5,1.8,3,2.7,4.5c-1.2-1-2.5-1.9-3.8-2.7
		c-1.6-1.1-3.2-2.2-4.7-3.3c-3-2.1-6-4.3-8.9-6.6c-5.9-4.7-11.4-9.9-16.6-15.4c-1-1.1-2.8,0.4-1.8,1.6c5.2,5.6,10.8,10.9,16.7,15.7
		c3,2.4,6,4.7,9.2,6.9c1.6,1.1,3.2,2.1,4.8,3.1c1.6,0.9,3.2,2,5,2.5c0.4,0.1,0.8-0.1,1-0.5c0.9,1.6,1.9,3.2,3.5,4.2
		c1.6,1,3.8,0.3,4.3-1.5c1.6-0.3,3.2-0.6,4.8-1.1c2.5-0.7,4.9-1.7,7.2-2.7c4.5-1.9,8.9-4.2,13.1-6.8c8.7-5.5,16.3-12.4,22.8-20.4
		c0.7-0.9,1.5-1.8,2.2-2.8c3.2,1.1,6.5,1.8,9.8,2.2c4.3,0.6,8.8,0.6,13.1-0.2c4.9-1,9.6-3.2,13.2-6.5
		C875.2,817.8,875.3,818.1,875.4,818.4L875.4,818.4z M876.6,794.3L876.6,794.3c-0.3,0.2-0.6,0.4-0.8,0.6c0,0-0.4,0.3-0.6,0.4
		c-0.2,0.1-0.5,0.3-0.4,0.3c-0.3,0.2-0.6,0.4-0.9,0.6c-1.2,0.7-2.5,1.3-3.8,1.9c-0.3,0.1-0.7,0.3-1,0.4c0,0-0.5,0.2-0.6,0.2
		c-0.7,0.2-1.4,0.5-2.1,0.6c-1.5,0.4-3.1,0.8-4.7,1c-1.5,0.2-2.9,0.4-4.4,0.6c-1.8,0.2-2.5,0.2-4.2,0.3c-12.9,0.7-25.8,0.6-38.6-0.4
		c-3-0.2-5.9-0.5-8.9-0.8c-0.2-0.2-0.4-0.3-0.5-0.5c-2-2-4-4.1-5.8-6.3c-3.1-3.8-5.8-7.8-8.2-12.1c2.1-0.7,4.1-1.8,5.8-3.2
		c1.8-1.4,3.2-3.1,4.8-4.8c1,0.8,2.1,1.7,3.1,2.4c-0.8,0.2-1.5,1-1,2c2,3.5,4.2,6.9,6.6,10.2c-3-1.6-5.8-3.5-8.4-5.6
		c-1.3-1.1-2.8,1.1-1.5,2.2c2.8,2.2,5.8,4.2,8.9,5.8c1.4,0.7,2.8,1.4,4.3,1.9c0.9,1.1,1.8,2.1,2.7,3.1c0.9,0.9,1.7,1.8,2.7,2.7
		c0.8,0.8,1.8,1.7,3,1.9c0.6,0.1,1.3-0.3,1.1-1c-0.6-2.1-2.7-3.8-4.2-5.3c0,0,0,0-0.1-0.1c0.1,0,0.2,0,0.2,0c0.6,0,1-0.8,0.4-1.3
		c-1-0.7-2.1-1.1-3.2-1.6c-0.7-0.8-1.4-1.6-2.1-2.5c-2.8-3.4-5.3-7.1-7.5-10.9c2.4,1.7,4.9,3.3,7.4,4.8c3.2,1.9,6.7,3.8,10.3,5.1
		c0.8,1.3,1.6,2.6,2.5,3.8c1.7,2.2,3.6,4.2,5.7,6c1,0.8,2.1,1.6,3.2,2.3c1.1,0.7,2.6,1.6,3.9,1.5c0.6,0,1.3-0.7,0.9-1.4
		c-0.6-1-1.8-1.8-2.8-2.5c-1-0.7-2-1.5-3-2.3c-2-1.6-3.7-3.5-5.3-5.5c-0.2-0.2-0.4-0.5-0.6-0.8c0.6-0.1,1.1-1,0.4-1.4
		c-0.7-0.4-1.4-0.8-2-1.1c-1.2-1.9-2.1-4-2.8-6.2c1.3,0.9,2.7,1.6,4.3,2c1,0.3,2.2,0.6,3.2,0.5c0.3,0,0.6,0,0.8,0
		c2.7,1.5,5.5,2.8,8.4,3.7c-0.6,0.3-1.1,1-0.7,1.9c1.1,3,2.9,5.6,5.2,7.8c1.1,1.1,2.4,2.2,3.7,3c1.1,0.7,2.9,1.7,4.2,1
		c0.4-0.2,0.6-0.6,0.5-1c-0.2-1.3-1.8-2.1-2.8-2.8c-1.1-0.8-2.2-1.6-3.2-2.6c-2-2-3.7-4.3-5.1-6.7c0-0.1-0.1-0.1-0.1-0.2
		c0.5-0.1,0.8-0.8,0.3-1.1c-2.2-1.3-4.4-2.5-6.6-3.8c0.4-0.2,0.7-0.4,1-0.6c0.3-0.1,0.6-0.1,0.8-0.3c0.6-0.2,1.1-0.5,1.7-0.8
		c3.7,2.5,7.5,4.8,11.3,7c2.5,1.5,5,2.9,7.6,4.2c1.3,0.7,2.6,1.3,4,2c1.3,0.6,2.6,1.4,4,1.5c0.6,0,1-0.7,0.6-1.2
		c-0.9-1-2.2-1.5-3.4-2.2c-1.3-0.7-2.6-1.4-3.8-2c-2.6-1.4-5.2-2.8-7.8-4.3c-3.4-2-6.8-4-10-6.2c1-0.5,2-1,3.1-1.4
		c0.3-0.1,1.2-0.4,1.9-0.6c0.8-0.2,1.7-0.4,2.6-0.5c1.1-0.2,3.2,0,4.8,0.2c0,0,0.2,0,0.3,0c0.1,0,0.3,0.1,0.3,0.1
		c0.4,0.1,0.9,0.2,1.3,0.3c0.9,0.2,1.7,0.5,2.5,0.8c0.8,0.3,1.6,0.6,2.3,1c0.2,0.1,0.5,0.2,0.7,0.3c0,0,0.2,0.1,0.3,0.1
		c0.1,0.1,0.3,0.1,0.3,0.1c0.3,0.2,0.6,0.3,0.8,0.5c3.3,1.8,6.3,4,9.4,6.2c2.5,1.8,5.1,3.5,7.7,4.9
		C879.5,791.9,878.1,793,876.6,794.3L876.6,794.3z M939.3,752.2L939.3,752.2C939.4,752.1,939.4,752.1,939.3,752.2L939.3,752.2z
		 M939.2,752.5L939.2,752.5C939.2,752.5,939.2,752.4,939.2,752.5C939.2,752.4,939.2,752.5,939.2,752.5L939.2,752.5z M939.4,752.1
		L939.4,752.1c0,0.1-0.1,0.1-0.1,0.2c0,0,0,0,0,0c-0.3,0.5-0.7,1-1,1.5c0,0,0,0,0,0c-0.2,0.2-0.4,0.4-0.6,0.7c0,0,0,0.1-0.1,0.1
		c-0.1,0.1-0.2,0.2-0.3,0.3c-0.3,0.3-0.6,0.5-0.9,0.7c-0.1,0.1-0.4,0.3-0.5,0.4c-0.1,0-0.2,0.1-0.2,0.1c-0.2,0.1-0.4,0.2-0.6,0.3
		c-0.3,0.2-0.7,0.4-1,0.5c-0.6,0.3-1.2,0.5-1.5,0.6c-0.7,0.2-1.5,0.4-2.3,0.6c-2.9,0.6-5.7,0.5-8.7,0.1c-3.5-0.4-7-0.6-10.3,0.9
		c-1.5,0.7-2.8,1.8-3.8,3.1c-0.5,0.7-0.9,1.4-1.1,2.2c-0.4,1.1-0.4,1.4-0.5,2.5c-0.4,2.9,0.8,5.7,1.5,8.5c0.2,0.7,0.3,1.3,0.4,2
		c0,0.3,0.1,0.5,0.1,0.8c0,0.2,0,0.3,0,0.5c0,0.4,0,0.7-0.1,1.1c0,0.1,0,0.1,0,0.2c0,0,0,0,0,0c-0.2,0.6-0.4,1.3-0.7,1.9
		c-0.1,0.1-0.1,0.2-0.2,0.3c-0.2,0.3-0.4,0.6-0.6,0.9c-0.2,0.3-0.4,0.5-0.6,0.7c0,0,0,0,0,0c-0.1,0.1-0.4,0.4-0.4,0.4
		c-0.4,0.4-0.9,0.9-1.4,1.3c-0.1,0.1-0.6,0.4-0.7,0.5c-0.2,0.1-0.5,0.3-0.6,0.4c-0.3,0.1-0.6,0.3-0.8,0.4c-0.1,0-0.4,0.2-0.6,0.3
		c-0.1,0-0.6,0.2-0.7,0.2c-0.5,0.1-0.9,0.2-1.4,0.3c-0.4,0.1-0.7,0.1-1.1,0.2c-0.1,0-0.2,0-0.4,0c0,0-0.1,0-0.1,0
		c-0.8,0-1.7,0-2.5-0.1c-0.4,0-0.7-0.1-1.1-0.1c-0.1,0-0.8-0.1-0.8-0.1c-0.8-0.2-1.5-0.4-2.3-0.6c-1.5-0.5-3-1.1-4.5-1.7
		c-0.1-0.1-0.2-0.1-0.2-0.1c0,0-0.1,0-0.2-0.1c-0.4-0.2-0.8-0.4-1.2-0.6c-0.8-0.5-1.7-0.9-2.5-1.4c-0.7-0.5-1.4-1.1-2.1-1.6
		c-2-1.5-3.9-3-5.8-4.5c-3.9-3.2-7.6-6.4-11-10c-0.7-0.8-1.9,0.3-1.2,1.1c1.4,1.7,2.9,3.4,4.4,5.1c-2.6-1.3-5.3-2.4-8.2-3
		c-3.6-0.8-7.3-1-11-0.1c-3.5,0.8-6.9,2.6-9.8,4.8c-0.6,0.4-1.1,0.9-1.6,1.3c-0.4,0-0.9,0-1.5,0c-0.2,0-0.8-0.1-0.7-0.1
		c-0.3-0.1-0.6-0.2-0.9-0.3c-0.7-0.2-1.3-0.4-1.9-0.7c-0.1,0-0.5-0.2-0.7-0.3c0,0-0.1,0-0.1-0.1c-0.3-0.2-0.5-0.3-0.8-0.5
		c-0.8-0.6-1.6-1.2-2.4-1.8c0.1,0.1-0.5-0.5-0.6-0.6c-0.2-0.2-0.4-0.4-0.7-0.7c0-0.1,0-0.2-0.1-0.3c-1.2-2.1-3-3.8-4.7-5.5
		c-1.8-1.8-3.5-3.6-5.2-5.4c-1.6-1.8-3.2-3.6-4.8-5.5c-0.5-0.6-0.9-1.2-1.4-1.8c0.4,0.1,0.8,0.1,1.2,0.2c7.5,1.3,15,2.5,22.5,3.4
		c7.4,1,14.9,1.9,22.4,2.2c0.7,0,1.4,0.1,2,0.1c0.4,0.1,0.8,0.2,1.2,0.3c3.3,0.7,6.6,1.4,10,1.8c6,0.7,12.2,0.8,18.2-0.3
		c11.5-2,22.2-8.5,27.6-19.1c1.6-3.1,2.8-6.3,3.4-9.7c0.1-0.8,0.3-1.6,0.4-2.4c0.4,0.8,0.7,1.7,1,2.6c1,2.7,2,5.8,4.1,7.9
		c-1.8,0.6-3.5,1.4-5.3,2.2c-1.2,0.6-0.5,2.4,0.7,2.1c3.7-0.7,7.5-1.2,11.2-1.4c1.5,0.2,3,0.3,4.5,0.5c0.4,0,0.8,0.1,1.1,0.2
		c-0.4,0,0.3,0.1,0.5,0.1c0.3,0.1,0.7,0.2,1,0.3c0.2,0,0.3,0.1,0.4,0.2c0,0,0.1,0,0.1,0.1c0.2,0.2,0.4,0.3,0.7,0.5c0,0,0,0,0,0
		c0,0,0.1,0.1,0.1,0.1c0.2,0.2,0.3,0.4,0.5,0.6c0,0,0.1,0.1,0.1,0.1c0,0,0,0,0,0c0.1,0.3,0.3,0.5,0.4,0.8c0,0.1,0.2,0.5,0.2,0.5
		c0,0.1,0.1,0.2,0.1,0.3c0.1,0.3,0.1,0.7,0.2,1c0,0.1,0,0.1,0,0.2c0,0.3,0,0.6,0,0.8c0,0.3,0,0.5-0.1,0.8c0,0.1,0,0.2,0,0.4
		c0,0-0.1,0.6-0.2,0.8c-0.1,0.3-0.1,0.5-0.2,0.8C939.6,751.5,939.5,751.8,939.4,752.1z"/>
	<path fill-rule="evenodd" clip-rule="evenodd" fill="#FFFFFF" d="M753.4,612.4c-3.5,4.4-1.6,11.6,1.6,15.6c1.7,2.1,4.4,4.3,7.3,4.1
		c3.2-0.2,4.6-3.4,4.8-6.3c0.2-3.2-0.7-7-3.4-9c-0.6-0.5-1.4,0.3-1.1,1c1.2,2.7,2.4,5.3,2,8.4c-0.2,1.2-0.6,3-2,3.3
		c-1.4,0.3-2.9-0.8-3.9-1.7c-2.1-1.7-3.5-4.2-4.1-6.8c-0.6-2.7-0.2-5.4,0.3-8.1C754.9,612.1,753.8,611.9,753.4,612.4z"/>
	<path fill-rule="evenodd" clip-rule="evenodd" fill="#FFFFFF" d="M788.9,618.6c1.1,1.6,3.1,2.4,5,1.9c1.8-0.5,3.4-2.1,2.7-4.1
		c-0.1-0.4-0.7-0.5-1-0.2c-1.3,1.1-3.1,3-4.7,1c-1.5-1.9,0.4-4,2.5-3.7c1.2,0.2,1.6-1.8,0.4-2.1C789.8,610.6,786.4,615,788.9,618.6z
		"/>
	<path fill-rule="evenodd" clip-rule="evenodd" fill="#FFFFFF" d="M828.2,668.4c4.1,1.5,8.6,2.2,13,2.2c2,0,4-0.3,5.9-1
		c1.5-0.6,3.6-1.8,3.4-3.7c0-0.4-0.5-0.6-0.8-0.5c-0.8,0.1-1.4,0.6-2.1,1c-0.7,0.4-1.5,0.8-2.3,1c-1.8,0.5-3.6,0.6-5.5,0.5
		c-4.4-0.1-8.8-1.1-12.8-2.9c-1.3-0.6-3.2-1.5-2.9-3.2c0.4-1.9,2.6-2.7,4.3-3.1c1.9-0.5,3.8-0.5,5.8-0.2c2,0.3,3.6,1.1,5.4,1.9
		c0.9,0.4,1.8-1,1.1-1.7c-2.8-2.6-7-3.5-10.7-3.1c-3.5,0.3-7.9,1.9-8.6,5.9C820.6,665.4,825.1,667.3,828.2,668.4z"/>
	<path fill-rule="evenodd" clip-rule="evenodd" fill="#FFFFFF" d="M847.4,626.9c0.9,1.2,2.3,2,3.7,2.5c1.8,0.7,3.7,1.4,5.6,2
		c3.2,0.9,7.4,1.7,9.9-1.1c1.1-1.3,1.5-3.1,0.6-4.6c-0.8-1.3-2.4-2.1-3.8-1.3c-0.7,0.4-0.5,1.5,0.3,1.6c1.1,0.1,1.9,1.2,1.4,2.3
		c-0.6,1.3-2.2,1.6-3.5,1.6c-3.2-0.1-6.4-1.4-9.4-2.6c-1-0.4-2.3-0.9-2.9-1.9c-0.5-1,0-1.9,0.8-2.5c2.5-2,5.7,0.2,7.8,1.7
		c1.3,0.9,2.6-1.1,1.3-2c-2.7-1.9-6.2-4-9.6-2.4C847.1,621.3,845.6,624.4,847.4,626.9z"/>
	<path fill-rule="evenodd" clip-rule="evenodd" fill="#FFFFFF" d="M694.6,622c2.3,3.5,5.5,6.2,9.1,8.3c2,1.2,4,2.2,6.1,3.2
		c0.8,0.4,1.6,0.7,2.5,0.3c0.8-0.4,1.2-1.2,1.2-2.1c0-1.7-1.2-3.8-2-5.3c-0.9-1.7-1.9-3.4-3-4.9c-2.6-3.5-6-6.2-9.8-8.3
		c-0.6-0.3-1.2,0.5-0.6,0.9c5,3.3,9.2,8.5,11.6,14c0.3,0.6,0.6,1.3,0.8,2c0.1,0.3,0.2,0.5,0.3,0.8c-0.2-0.1-0.5-0.2-0.7-0.3
		c-0.4-0.2-0.7-0.4-1.1-0.6c-0.8-0.4-1.6-0.9-2.4-1.3c-2.9-1.7-5.7-3.5-8-6c-1.2-1.3-2.1-2.8-2.8-4.4c-0.7-1.6-1-3.2,0.1-4.7
		c0.7-1-0.5-2.3-1.5-1.7C690.4,613.7,692.9,619.4,694.6,622z"/>
	<path fill-rule="evenodd" clip-rule="evenodd" fill="#FFFFFF" d="M737.9,660.9c-1.5,1.2-2.4,3.3-1.6,5.1c0.8,1.9,2.9,2.5,4.7,3.2
		c4.3,1.6,8.9,2.6,13.5,2.9c2.2,0.1,4.5,0,6.4-1.3c1.6-1.2,3-3.7,1.6-5.5c-0.6-0.7-1.7-0.4-2,0.4c-0.2,0.5-0.2,1.2-0.5,1.7
		c-0.3,0.6-0.9,1.1-1.5,1.3c-1.4,0.6-3,0.4-4.5,0.3c-3.5-0.3-7-1-10.3-2.1c-0.8-0.3-1.6-0.6-2.4-0.9c-0.7-0.3-1.5-0.5-2-1
		c-1.2-1.1,0.9-2.4,1.7-2.8c2.6-1.4,5.5-2.2,8.4-2.4c3.4-0.2,6.8,0.4,9.9,2c1,0.5,1.8-1.2,0.8-1.7c-3.4-1.8-7.3-2.8-11.1-2.7
		C745.3,657.6,740.9,658.4,737.9,660.9z"/>
	<path fill-rule="evenodd" clip-rule="evenodd" fill="#FFFFFF" d="M803.2,634.2c1.6,1.1,4,1.2,5.5-0.2c1.4-1.3,2.4-4,0.9-5.6
		c-0.7-0.8-1.9-0.3-2,0.7c-0.1,0.9,0,1.8-0.7,2.5c-0.6,0.7-1.5,0.8-2.3,0.4c-2.2-1.1-0.9-3.8,1.1-4c1.2-0.1,1-2.1-0.2-2.1
		C801.3,626.2,799.5,631.8,803.2,634.2z"/>
	<path fill-rule="evenodd" clip-rule="evenodd" fill="#FFFFFF" d="M754.6,601.8c1.5,1.3,3.6,1.8,5.3,0.5c0.4-0.3,0.3-1.1-0.2-1.2
		c-2.2-0.5-4.8-1.6-4.4-4.3c0.4-2.8,3.5-3.7,5.6-2.1c0.8,0.6,1.7-0.7,0.9-1.3c-3.1-2.5-7.9-0.9-8.8,2.9
		C752.5,598.4,753,600.5,754.6,601.8z"/>
	<path fill-rule="evenodd" clip-rule="evenodd" fill="#FFFFFF" d="M876.7,676.1c1,1.4,2.6,2.1,4.2,2.5c1.8,0.5,3.6,0.8,5.4,0.8
		c1.8,0,3.9-0.1,5.5-1.1c0.4-0.3,0.5-1-0.1-1.2c-1.3-0.3-2.7-0.3-4.1-0.4c-1.5-0.1-2.9-0.3-4.3-0.6c-1.8-0.4-5.3-1.1-4.5-3.7
		c0.7-2.1,3.1-3.4,5.1-4c2.4-0.7,4.8-0.5,7,0.7c1.2,0.6,2.4-1.1,1.2-1.7c-2.7-1.5-6-2-9-1.4c-3,0.6-6.1,2.6-7.1,5.6
		C875.6,673.2,875.8,674.8,876.7,676.1z"/>
	<path fill-rule="evenodd" clip-rule="evenodd" fill="#FFFFFF" d="M816.7,694.9c-1.8-0.8-3.5-1.7-5.2-2.7c-1.6-1-3.2-2.1-4.7-3.3
		c-1.3-1-2.8-3-4.5-3c-0.4,0-0.8,0.3-0.8,0.7c0.1,1.7,1.8,2.9,3,3.9c1.5,1.2,3,2.4,4.6,3.4c1.6,1,3.3,1.9,5,2.6
		c1.4,0.6,2.9,1.3,4.4,1.4c3.6,0.1,4.4-3.7,3.5-6.5c-1-2.9-3.2-5.2-5.8-6.7c-3.8-2.2-8.2-2.4-12.5-2.5c-1.3,0-1.3,1.8-0.1,1.9
		c3.8,0.5,7.9,0.9,11.3,2.8c2.5,1.3,5.5,4.1,5.1,7.3C819.9,696.2,817.9,695.4,816.7,694.9z"/>
	<path fill-rule="evenodd" clip-rule="evenodd" fill="#FFFFFF" d="M640.2,802.2c-2-2.3-4.2-4.3-6.4-6.4c-2.2-2.2-4.4-4.4-6.4-6.7
		c-4.1-4.7-7.8-9.6-11.1-14.8c-0.5-0.8-2-0.2-1.4,0.7c3.3,5.4,6.9,10.5,11,15.2c2.1,2.4,4.2,4.7,6.5,6.9c2.2,2.2,4.5,4.3,7.2,5.8
		C640.1,803.2,640.6,802.6,640.2,802.2z"/>
	<path fill-rule="evenodd" clip-rule="evenodd" fill="#FFFFFF" d="M647.1,802.9c-2-2.8-4.7-5.1-7.1-7.6c-2.4-2.5-4.8-5-7.1-7.7
		c-4.5-5.2-8.8-10.7-12.7-16.5c-2.2-3.3-4.3-6.7-6.3-10.2c-0.4-0.8-1.7-0.2-1.2,0.6c6.8,12.4,15,23.9,24.8,34.1
		c2.7,2.8,5.6,5.9,9,7.9C647,803.9,647.4,803.4,647.1,802.9z"/>
	<path fill-rule="evenodd" clip-rule="evenodd" fill="#FFFFFF" d="M654.8,802.1c-1-1.3-2.5-2.4-3.7-3.4c-1.3-1.1-2.6-2.2-3.9-3.3
		c-2.7-2.4-5.4-4.8-7.9-7.3c-4.9-4.9-9.6-10.1-13.8-15.6c-2.5-3.2-4.9-6.5-7.1-10c-0.4-0.6-1.3-0.1-1,0.5
		c7.6,12.1,16.8,23.2,27.5,32.7c1.5,1.3,3,2.6,4.5,3.8c1.6,1.2,3.2,2.6,5,3.3C654.7,802.8,655,802.3,654.8,802.1z"/>
	<path fill-rule="evenodd" clip-rule="evenodd" fill="#FFFFFF" d="M638.5,779.6c4.9,5.6,10.2,11.3,16.4,15.4c0.4,0.3,1-0.3,0.6-0.7
		c-5.2-5.2-10.8-10-15.7-15.6c-4.9-5.6-9.4-11.6-13.3-18c-0.5-0.8-1.8-0.2-1.3,0.6C629.2,767.8,633.6,773.9,638.5,779.6z"/>
	<path fill-rule="evenodd" clip-rule="evenodd" fill="#FFFFFF" d="M642.6,774.6c3,3.4,6.4,7.2,10.4,9.4c0.5,0.3,1.2-0.3,0.7-0.8
		c-1.5-1.7-3.3-3.2-4.9-4.7c-1.7-1.6-3.3-3.2-4.8-4.9c-3.1-3.4-5.9-7.1-8.3-11.1c-0.6-0.9-2.2-0.2-1.6,0.8
		C636.7,767.3,639.5,771.1,642.6,774.6z"/>
	<path fill-rule="evenodd" clip-rule="evenodd" fill="#FFFFFF" d="M686.9,666.2c2.8,2.9,5.9,6,9.5,7.9c0.6,0.3,1.2-0.3,0.8-0.9
		c-2.2-2.8-4.9-5.2-7.4-7.8c-2.5-2.6-4.9-5.3-7.2-8.1c-4.6-5.6-8.6-11.6-12.1-18c-2-3.6-3.8-7.3-5.4-11c-0.3-0.8-1.5-0.2-1.2,0.6
		C669,642.8,676.7,655.5,686.9,666.2z"/>
	<path fill-rule="evenodd" clip-rule="evenodd" fill="#FFFFFF" d="M681.1,648.3c4.3,7,9,14.1,14.8,20c0.6,0.6,1.7-0.1,1.2-0.8
		c-4.6-6.9-9.5-13.4-13.9-20.5c-4.3-7.1-8.2-14.4-11.5-22c-0.6-1.5-2.9-0.4-2.2,1.1C672.9,633.8,676.7,641.2,681.1,648.3z"/>
	<path fill-rule="evenodd" clip-rule="evenodd" fill="#FFFFFF" d="M699.6,663.7c2.4,3,4.9,6,7.8,8.5c0.6,0.5,1.3-0.4,0.9-1
		c-1.9-2.7-4.1-5.2-6.1-7.8c-2.1-2.6-4.1-5.3-6-7.9c-3.9-5.5-7.6-11.1-10.9-17c-1.9-3.3-3.6-6.7-5.2-10.1c-0.7-1.4-2.9-0.3-2.2,1.1
		C683.8,641.6,691,653.2,699.6,663.7z"/>
	<path fill-rule="evenodd" clip-rule="evenodd" fill="#FFFFFF" d="M695.3,642.3c4.3,6.4,8.9,12.7,14.6,17.9c0.5,0.5,1.3-0.1,0.9-0.7
		c-4.5-6.1-9.4-12-13.7-18.3c-4.3-6.3-8.2-12.9-11.6-19.8c-0.5-1.1-2.2-0.3-1.6,0.8C687.2,629.2,691.1,635.9,695.3,642.3z"/>
	<path fill-rule="evenodd" clip-rule="evenodd" fill="#FFFFFF" d="M689.6,616.6c-0.5-1.2-2.4-0.3-1.9,0.9c1.9,4.4,4,8.7,6.4,12.9
		c2.3,4.1,4.8,8.2,7.9,11.7c0.4,0.5,1.4-0.1,1-0.7c-2.3-4.1-4.9-8-7.2-12.1C693.5,625.2,691.4,621,689.6,616.6z"/>
	<path fill-rule="evenodd" clip-rule="evenodd" fill="#FFFFFF" d="M695.5,625.3c0.3,0.4,0.8-0.1,0.6-0.5c-2.6-3.9-4.9-8-6.6-12.4
		c-0.3-0.9-1.8-0.2-1.4,0.7C689.9,617.6,692.3,621.8,695.5,625.3z"/>
	<path fill-rule="evenodd" clip-rule="evenodd" fill="#FFFFFF" d="M708,615.4c-1.6-2.3-2.9-4.9-3.8-7.5c-0.3-1-1.9-0.7-1.6,0.3
		c1.7,5.3,5,11.2,10,14.1c0.5,0.3,1-0.3,0.6-0.7C711.5,619.6,709.5,617.6,708,615.4z"/>
	<path fill-rule="evenodd" clip-rule="evenodd" fill="#FFFFFF" d="M711.5,613.5c1.3,1.9,2.6,3.7,4.1,5.5c1.4,1.7,3,3.6,5,4.7
		c0.4,0.2,1.1-0.2,0.8-0.7c-1-1.9-2.6-3.5-4-5.1c-1.5-1.7-2.9-3.6-4.2-5.5c-2.6-3.8-4.7-7.8-6.4-12c-0.5-1.2-2.3-0.3-1.8,0.9
		C706.8,605.6,708.9,609.7,711.5,613.5z"/>
	<path fill-rule="evenodd" clip-rule="evenodd" fill="#FFFFFF" d="M717.8,609.9c1,1.7,2.1,3.4,3.2,5c1,1.6,2.2,3.7,3.9,4.6
		c0.4,0.2,0.9,0,0.8-0.5c-0.3-1.8-1.8-3.4-2.8-4.8c-1.2-1.7-2.3-3.5-3.4-5.2c-2.1-3.5-4.1-7-5.8-10.7c-0.5-0.9-1.9-0.2-1.5,0.7
		C713.8,602.6,715.7,606.3,717.8,609.9z"/>
	<path fill-rule="evenodd" clip-rule="evenodd" fill="#FFFFFF" d="M725.7,605c1.4,2.7,2.6,5.8,4.8,8c0.3,0.3,0.9,0.1,0.8-0.4
		c-0.6-3-2.4-5.8-3.9-8.5c-1.5-2.8-3-5.7-4.6-8.5c-0.5-1-2.1-0.2-1.6,0.8C722.7,599.3,724.2,602.2,725.7,605z"/>
	<path fill-rule="evenodd" clip-rule="evenodd" fill="#FFFFFF" d="M727.9,598.4c1.1,1.9,2.3,3.8,3.4,5.7c1.1,1.8,2.1,3.8,3.7,5.3
		c0.5,0.4,1.4,0.1,1.2-0.6c-0.6-2.1-1.8-3.9-2.8-5.7c-1.1-1.9-2.2-3.8-3.3-5.8C729.2,596.1,727.1,597.1,727.9,598.4z"/>
	<path fill-rule="evenodd" clip-rule="evenodd" fill="#FFFFFF" d="M770.7,855.2c-0.8-0.5-1.7-1-2.6-1.5c-1.6-0.9-3.2-1.8-4.7-2.8
		c-3.2-2-6.2-4.3-9.2-6.7c-1.1-0.9-2.3,0.9-1.2,1.8c2.9,2.5,6,4.9,9.2,7c1.6,1.1,3.2,2.1,4.8,3c1.3,0.7,3.4,2.3,4.9,1.8
		c0.5-0.1,0.7-0.6,0.5-1C772.2,856.1,771.4,855.6,770.7,855.2z"/>
	<path fill-rule="evenodd" clip-rule="evenodd" fill="#FFFFFF" d="M863.7,784.8c-3.6-2.1-7.1-4.5-10.6-6.8c-1.1-0.7-2.1,0.8-1.1,1.6
		c3.2,2.8,6.8,5.1,10.5,7.3c1.8,1.1,3.7,2.1,5.6,3.1c1.7,0.9,3.7,2.1,5.6,2c0.5,0,0.8-0.5,0.5-0.9c-1.2-1.6-3.4-2.4-5.1-3.3
		C867.3,786.8,865.5,785.8,863.7,784.8z"/>
	<path fill-rule="evenodd" clip-rule="evenodd" fill="#FFFFFF" d="M863.2,742.9c-1.9-1.9-3.5-3.9-4.8-6.2c-0.9-1.6-3.6-0.3-2.6,1.3
		c1.6,2.8,3.5,5.3,5.8,7.5c1.1,1.1,2.3,2.1,3.6,3c1.1,0.8,2.8,2.3,4.2,1.8c0.6-0.2,1-0.7,0.9-1.3c-0.1-0.7-0.6-1.2-1.2-1.6
		c1.1,0.4,2.2,0.6,3.3,0.5c0.5-0.1,0.6-0.8,0.2-1c-1.2-0.8-2.6-1.3-3.9-1.9c-1.3-0.7-2.6-1.6-3.8-2.6
		C864.2,741.7,863.3,742.2,863.2,742.9z"/>
	<path fill-rule="evenodd" clip-rule="evenodd" fill="#FFFFFF" d="M855.6,842.4c-1.7-2.1-3.8-3.9-5.6-5.8c-1.2-1.2-3.1,0.5-2,1.7
		c2,2,3.9,4.1,6,5.9c0.3,0.3,0.9,0.3,1.2,0.1c0.3-0.2,0.5-0.4,0.6-0.7C856,843.2,855.9,842.7,855.6,842.4z"/>
	<path fill-rule="evenodd" clip-rule="evenodd" fill="#FFFFFF" d="M861.7,836c-1.5-1.4-3.9-1.8-5.7-2.8c-2-1-3.8-2.3-5.5-3.7
		c-1.2-1-2.5,1-1.3,2c1.8,1.5,3.8,2.8,5.9,3.9c1.8,0.9,4.2,2.3,6.2,1.8C861.8,837.1,862.1,836.4,861.7,836z"/>
	<path fill-rule="evenodd" clip-rule="evenodd" fill="#FFFFFF" d="M858.4,826.4c-1.1-1.4-3.2,0.4-2.1,1.8c1.7,2,3.7,3.8,5.9,5.2
		c2.1,1.3,4.5,2.5,7.1,2.3c0.7,0,0.7-1,0.3-1.3c-1.8-1.3-4.1-2.1-6-3.3C861.6,829.7,859.9,828.2,858.4,826.4z"/>
	<path fill-rule="evenodd" clip-rule="evenodd" fill="#FFFFFF" d="M916.7,704.5c-1.2-1.2-2.5-2.3-3.8-3.5c-2.5-2.3-5-4.6-7.6-6.9
		c-1.2-1.1-3,0.5-1.9,1.6c2.4,2.4,4.9,4.7,7.4,7.1c1.2,1.1,2.3,2.3,3.6,3.4c1,0.9,2.5,2.6,3.9,2.6c0.4,0,0.8-0.3,0.8-0.7
		C919.2,706.6,917.7,705.4,916.7,704.5z"/>
	<path fill-rule="evenodd" clip-rule="evenodd" fill="#FFFFFF" d="M910,686.1c0.1,0.1,0.2,0.2,0.3,0.3c0.5,0.7,0.8,1.6,1.2,2.3
		c0.2,0.4,0.6,0.6,1,0.6c1.2,1.6,2.6,3.1,3.9,4.5c2.1,2.3,4.5,5,7.4,6.2c0.6,0.2,1.2-0.5,0.9-1.1c-1.5-2.7-4.2-4.9-6.3-7.2
		c-2.2-2.4-4.3-4.9-6.5-7.3C910.9,683.2,909,684.8,910,686.1z"/>
	<path fill-rule="evenodd" clip-rule="evenodd" fill="#FFFFFF" d="M905.6,670.2c1.8,2.4,3.6,4.7,5.4,7.1c0.9,1.1,1.7,2.2,2.6,3.3
		c1,1.1,1.9,2.3,3.1,3.2c0.7,0.5,1.5-0.3,1.2-1c-0.5-1.4-1.4-2.5-2.2-3.7c-0.8-1.2-1.8-2.4-2.7-3.6c-1.8-2.4-3.6-4.7-5.5-7
		C906.5,667.2,904.6,668.9,905.6,670.2z"/>
	<path fill-rule="evenodd" clip-rule="evenodd" fill="#FFFFFF" d="M858.3,792.4c-1.2-1.1-2.4-2.3-3.7-3.3c-1-0.8-2.3,0.7-1.5,1.7
		c1,1.2,2.2,2.4,3.4,3.5c1,0.9,2.2,2.3,3.6,2.6c0.5,0.1,1.2-0.3,1.1-0.9C860.7,794.6,859.4,793.4,858.3,792.4z"/>
</g>
<g>
	<path fill-rule="evenodd" clip-rule="evenodd" fill="#FFFFFF" d="M141.9,589.3c3.8,1.9,8.4,2,12.5,2.4c5.3,0.5,10.5,1,15.8,1.2
		c20.9,1.1,41.8,0.3,62.6-2.3c5.8-0.7,11.6-1.7,17.3-2.8c2.9-0.6,5.8-1.1,8.7-1.8c2.9-0.6,5.9-1.2,8.6-2.4c1.4-0.6,0.9-2.7-0.6-2.6
		c-2.4,0.1-4.9,0.6-7.3,1.1c-2.4,0.4-4.8,0.9-7.3,1.3c-4.9,0.8-9.7,1.5-14.6,2.2c-9.8,1.4-19.6,2.4-29.4,2.9
		c-1.4,0.1-2.8,0.2-4.1,0.2c1.3-0.9,2.8-3.2,3.3-3.8c1.8-2,4-3.9,6.4-5c0.9-0.4,0.4-1.8-0.6-1.5c-2.6,0.8-5.1,1.8-7.2,3.6
		c-1,0.9-2.1,1.9-2.8,3c-0.6,0.9-1.7,2.5-0.9,3.6c0,0,0.1,0.1,0.1,0.1c-10.7,0.5-21.4,0.5-32.1,0c0.2-0.3,0.3-0.5,0.5-0.8
		c0.5-0.8,1-1.7,1.6-2.4c1.2-1.7,2.7-3.2,4.3-4.5c3.3-2.6,7.1-4.2,11.3-4.6c1.1-0.1,1-1.8-0.2-1.8c-4.4,0.3-8.8,1.9-12.4,4.4
		c-1.8,1.3-3.5,2.8-4.9,4.5c-0.9,1.2-2.6,3.2-2.7,4.9c-6-0.3-12.1-0.8-18.1-1.4c-1.9-0.2-4.6-0.5-6.5-1.6c0.5-0.8,1.1-1.5,1.8-2.1
		c1.2-1,2.6-1.8,4.1-2.5c3.7-1.7,7.6-3,11.4-4.4c8-2.8,16.2-5.1,24.5-7c16.8-3.9,34-6.2,51.1-8c9.6-1,19.4-1.5,29-3.4
		c1-0.2,0.8-1.5-0.1-1.5c-8.9-0.2-17.8,0.8-26.6,1.7c-8.8,0.9-17.7,1.9-26.5,3.2c-17.4,2.6-34.7,6.4-51.3,12.2
		c-4.3,1.5-8.8,3-12.8,5.2c-2.2,1.2-4.9,2.8-6.2,5.1c-0.3-0.4-0.5-0.9-0.6-1.4c-0.5-2.1,0.4-4.3,1.7-5.8c0.8-0.9,1.8-1.7,2.9-2.3
		c1-0.7,2-1.4,3.1-2c0.9-0.5,0.1-2-0.9-1.6c-1,0.4-2.1,0.7-3,1.2c-1.1,0.5-2.2,1.2-3.1,2c-1.7,1.4-3.1,2.9-3.8,5
		C136.1,583.5,138.1,587.4,141.9,589.3z"/>
	<path fill-rule="evenodd" clip-rule="evenodd" fill="#FFFFFF" d="M283.1,580.8c-1.3-0.7-2.8-0.3-4.2-0.1c-1.5,0.3-3.1,0.6-4.6,0.9
		c-1.4,0.3-1.3,2.5,0.2,2.3c1.6-0.2,3.2-0.4,4.8-0.7c1.4-0.2,2.9-0.4,3.9-1.5C283.6,581.5,283.4,581,283.1,580.8z"/>
	<path fill-rule="evenodd" clip-rule="evenodd" fill="#FFFFFF" d="M279.5,551c3.6,1.2,7.4,0.9,11.2,0.7c1.4,0,1.5-2.5,0.1-2.5
		c-3.8-0.2-7.6-0.7-11.3,0.5C279,549.9,278.9,550.8,279.5,551z"/>
	<path fill-rule="evenodd" clip-rule="evenodd" fill="#FFFFFF" d="M171.2,563.5c4.7-1.5,9.4-2.7,14.2-3.9c4.8-1.2,9.6-2.3,14.4-3.2
		c9.6-1.8,19.3-3,29.1-3.6c5.6-0.4,11.2-0.2,16.7-1.2c0.7-0.1,0.8-1.1,0-1.3c-4.9-0.9-9.9-0.7-14.9-0.4c-4.9,0.3-9.9,0.7-14.8,1.4
		c-9.8,1.3-19.5,3.3-29,5.9c-5.5,1.5-10.8,3.4-16.1,5.3C170.1,562.7,170.5,563.8,171.2,563.5z"/>
	<path fill-rule="evenodd" clip-rule="evenodd" fill="#FFFFFF" d="M276.2,557.9c0.6-0.1,1.4-0.1,1.8-0.7c0.2-0.4,0.2-0.8-0.1-1.1
		c-0.5-0.5-1.3-0.4-1.8-0.3c-0.5,0-1,0.6-0.9,1.1C275.2,557.5,275.7,557.9,276.2,557.9z"/>
	<path fill-rule="evenodd" clip-rule="evenodd" fill="#FFFFFF" d="M288.3,557.8c6.2-0.9,12.7-0.6,18.8,0.5c2.8,0.5,5.6,1.4,8.2,2.6
		c1.1,0.5,2.2,1.1,3.1,1.9c0.9,0.8,1.4,2.2,2.6,2.7c0,0,0,0,0,0c-3.8,2.1-7.8,3.9-11.7,6c-4.6,2.6-9.5,4.4-14.5,5.9
		c-1.4,0.4-0.6,2.6,0.8,2.2c5-1.4,9.9-3.1,14.8-4.6c4.9-1.5,9.6-4.2,14.1-6.8c2.2-1.2,4.3-2.5,6.3-4c1.9-1.4,3.6-3.2,4.1-5.5
		c0.5-2.2-0.2-4.7-2.1-6.1c-1.9-1.4-4.3-1.6-6.6-1.9c-3.1-0.5-6.1-1-9.2-1.2c-3.1-0.3-6.2-0.8-9.4-0.5c-0.8,0.1-1.1,1.3-0.3,1.6
		c2.3,0.9,4.7,1.5,7.1,1.9c2.4,0.5,4.8,1,7.2,1.3c2.3,0.3,4.7,0.6,7.1,1.1c1.6,0.3,2.8,1,2.3,2.8c-0.5,1.7-2.2,2.8-3.7,3.7
		c-1.4,0.9-2.8,1.7-4.2,2.6c0.4-2.9-3.1-5-5.4-6c-2.9-1.3-6.1-1.8-9.3-2.3c-3.4-0.5-6.8-0.9-10.3-1c-3.5,0-6.9,0.4-10.3,1.1
		C287,556.2,287.1,558,288.3,557.8z"/>
	<path fill-rule="evenodd" clip-rule="evenodd" fill="#FFFFFF" d="M250.4,564.8c-3.6,0.3-7.2,0.7-10.8,1.2c-7.1,0.9-14.2,2.3-21.2,4
		c-4,1-8,2.1-11.9,3.2c-1.1,0.3-0.4,1.9,0.6,1.6c6.9-1.9,13.9-3.4,20.9-4.8c7-1.3,14.1-2.5,21.3-3.3c3.9-0.4,7.9-0.4,11.8-1.4
		c0.5-0.1,0.4-0.9-0.1-0.9C257.5,563.9,253.9,564.4,250.4,564.8z"/>
	<path fill-rule="evenodd" clip-rule="evenodd" fill="#FFFFFF" d="M276,565.7C275.9,565.7,275.9,565.7,276,565.7
		C276,565.7,276,565.7,276,565.7z"/>
	<path fill-rule="evenodd" clip-rule="evenodd" fill="#FFFFFF" d="M271.9,566.6c1.1-0.1,2.4,0,3.4-0.5c1-0.5,0.9-1.8-0.2-2.1
		c-1.1-0.3-2.4,0-3.5,0.1C270.1,564.3,270.3,566.8,271.9,566.6z"/>
	<path fill-rule="evenodd" clip-rule="evenodd" fill="#FFFFFF" d="M276.5,568.8c4,0,8.3-0.3,12.2,1c1.5,0.5,3.1,1.2,4.3,2.2
		c1.3,1.1,2.1,2.8,3.6,3.5c0.9,0.4,1.6-0.3,1.6-1.2c0-1.9-2-3.4-3.4-4.3c-1.6-1-3.3-1.8-5.1-2.4c-4.4-1.3-8.9-1-13.4-0.5
		C275.2,567.2,275.4,568.8,276.5,568.8z"/>
	<path fill-rule="evenodd" clip-rule="evenodd" fill="#FFFFFF" d="M163.6,598.9c10.2,0.4,20.4,0.4,30.6,0.2c2.8-0.1,5.7-0.2,8.5-0.4
		c1.4-0.1,2.8-0.2,4.3-0.4c1.4-0.1,2.9-0.2,4.2-0.8c0.5-0.2,0.7-1.1,0-1.3c-1.1-0.4-2.2-0.3-3.4-0.4c-1.3,0-2.6,0-3.9,0
		c-2.6,0-5.1,0.1-7.7,0.2c-5.1,0.1-10.3,0.2-15.4,0.3c-10.2,0-20.4-0.3-30.6-0.8c-2.9-0.2-5.7-0.3-8.6-0.4c-2.8-0.1-5.7-0.4-8.6-0.2
		c-0.7,0-0.7,1,0,1.2c4.9,1.3,10.2,1.6,15.2,2C153.4,598.4,158.5,598.7,163.6,598.9z"/>
	<path fill-rule="evenodd" clip-rule="evenodd" fill="#FFFFFF" d="M222.7,596.6c-0.6-0.2-1.3,0-1.9,0.2c-0.7,0.2-1,1.1-0.8,1.7
		c0.3,0.7,1,1,1.7,0.8c0.3-0.1,0.5-0.2,0.8-0.3c0.3-0.1,0.5-0.3,0.6-0.5c0.3-0.2,0.5-0.5,0.6-0.9c0.1-0.2-0.1-0.5-0.2-0.7
		C223.3,596.7,223,596.6,222.7,596.6z"/>
	<path fill-rule="evenodd" clip-rule="evenodd" fill="#FFFFFF" d="M289.4,587.8c-1,0.3-2,0.6-3,0.8c-1.2,0.3-2.2,0.8-3.3,1.2
		c-1.2,0.5-0.7,2.1,0.5,2.1c1,0,2,0,2.9-0.2c1-0.2,1.9-0.4,2.9-0.6c2-0.4,3.9-0.9,5.9-1.4c3.9-1,7.8-2.2,11.5-3.6
		c7.5-2.8,14.7-6.3,21.7-10.3c3.9-2.2,7.7-4.6,11.5-7.1c1.6-1.1-0.1-3.6-1.8-2.5c-13.1,8.6-27.6,14.9-42.5,19.5
		C293.6,586.6,291.5,587.2,289.4,587.8z"/>
	<path fill-rule="evenodd" clip-rule="evenodd" fill="#FFFFFF" d="M425.8,560.9c-3.1-7-9.7-11.4-16.7-13.9
		c-6.5-2.3-13.3-3.3-20.1-3.1c-11.9,0.4-24,4.7-32.7,12.9c-0.3-0.8-0.7-1.6-1.1-2.4c-1.3-2.5-2.9-4.6-5-6.5c-2.5-2.3-6-4.4-9.5-5
		c-1.4-0.3-2.9-0.6-4.3-0.8c-3.4-0.6-6.8-1.2-10.2-1.7c-6.8-1-13.6-1.8-20.4-2.4c-13.7-1.2-27.5-1.6-41.3-1.3
		c-27.3,0.7-54.5,4.3-81.1,10.9c-7.2,1.8-14.4,4-21.4,6.7c-1.5,0.6-3,1.2-4.5,1.9c0,0-0.1,0-0.1,0c-1.3,0.3-2.5,0.7-3.8,1.1
		c-2.2,0.8-4.4,1.7-6.6,2.7c-4.5,2-8.8,4.3-12.7,7.2c-7.3,5.6-13.1,13.4-14.8,22.5c-0.5,2.5-0.9,5.5-0.2,8c0.1,0.2,0.1,0.3,0.1,0.3
		c0.1,0.4,0.2,0.8,0.2,1.1c0.2,0.7,0.3,1.3,0.5,2c0.2,0.6,0.5,1,0.8,1.4c0.2,0.3,0.4,0.7,0.6,0.9c0.8,3.6,1.6,7.2,2.5,10.7
		c1.9,7.3,4.2,14.5,7.2,21.5c5.2,12.5,12.6,24.3,22.2,33.8c1.4,1.4,2.9,2.8,4.5,4.1c-0.6,0.2-1.3,0.3-1.9,0.5c-0.3,0-0.6,0-0.9,0.1
		c-4.4,1.1-8.6,2.4-12.9,3.5c-4.2,1-8.4,2-12.4,3.6c-7.1,3-13.6,8.5-15.9,16.1c-2.5,8.2,2.3,16.2,8.8,21c6.8,5.1,15.1,7.9,23.4,9.6
		c8.3,1.7,16.9,2.2,25.4,2.6c9.7,0.5,19.4,0.7,29.1,0.6c19.1-0.2,38.3-1.3,57.3-3.7c9.5-1.2,18.9-2.6,28.3-4.3
		c1.9-0.4,3.8-0.7,5.8-1.1c2.9,0.3,5.9-0.1,8.8-0.5c3.1-0.4,6.1-1.1,9.1-1.7c6.3-1.3,12.6-3.4,18.7-5.5c11.8-4.1,23.4-9,34.9-14
		c5.5-2.4,11.3-4.6,16.3-8.1c4.8-3.4,8.6-8.1,10-13.8c1.3-5.2-0.2-10.9-3.7-14.9c-3.4-3.9-7.9-6.5-12.7-8.3
		c-6.3-2.4-13-3.8-19.6-4.6c-3.5-0.5-7.1-0.7-10.6-0.7c-1.4,0-2.7,0-4.1,0.1c0.3-0.4,0.6-0.8,0.9-1.1c0.2,0,0.4,0,0.6-0.1
		c1.4-0.6,2.5-2.1,3.7-3.1c0.2-0.2,0.4-0.3,0.5-0.5c0.2,0,0.4-0.1,0.6-0.3c0.7-0.5,1.5-1,2.1-1.7c0.6-0.6,1.1-1.2,1.7-1.8
		c1.4-1.2,2.7-2.6,4-3.9c2.5-2.5,5.2-4.7,8.1-6.8c5.8-4.2,11.7-7.3,18.4-9.7c13.3-4.7,28.9-6.4,38.8-17.6c4.8-5.5,7.5-12.5,8.8-19.6
		c0.7-3.7,0.9-7.5,0.9-11.3C427.9,568.6,427.3,564.5,425.8,560.9L425.8,560.9z M359,599.7L359,599.7c0.3-2.7,0.4-5.5,0.5-8.3
		c0.1-6.1-0.4-12.2-1.4-18.2c1.5-1.2,3.1-2.3,4.8-3.3c2.8-1.6,5.9-2.8,9.1-3.3c6.5-1.1,13.7,0.1,18.9,4.5c2.4,2.1,4.2,5,4.1,8
		c-0.1,3.2-2,6.1-4.3,8.2c-6.3,5.7-15.4,5.7-23.2,8.2C364.5,596.5,361.6,597.9,359,599.7L359,599.7z M156.2,662.2L156.2,662.2
		C156.2,662.1,156.2,662.1,156.2,662.2c-0.4-0.4-0.7-0.8-1-1.1c-2.1-2.4-4.1-4.8-5.9-7.4c-1.8-2.5-3.5-5.1-5.1-7.8
		c-0.4-0.7-0.8-1.3-1.1-2c-0.2-0.3-0.3-0.6-0.5-0.9c0-0.1-0.3-0.6-0.4-0.7c-0.8-1.5-1.5-3-2.2-4.5c-3.2-6.7-5.7-13.7-7.9-20.8
		c-2.2-7-3.8-14.2-5.8-21.3c-0.2-0.7-0.5-1.4-0.8-2.1c0-0.5,0.1-1,0.2-1.5c0.1-1,0.3-2,0.6-2.9c0.1-0.4,0.2-0.7,0.3-1.1
		c0-0.1,0.1-0.2,0.1-0.3c0.1-0.3,0.2-0.6,0.3-0.9c0.7-1.9,1.6-3.7,2.6-5.5c0,0.1,0.2-0.4,0.3-0.6c0.1-0.1,0.2-0.3,0.2-0.3
		c0.3-0.4,0.6-0.8,0.9-1.3c0.6-0.8,1.2-1.6,1.9-2.4c1.3-1.6,2.7-2.9,4.3-4.2c3.4-2.9,7.2-5.3,11.1-7.4c2-1.1,4.1-2.1,6.1-3.1
		c2.5-1,5.1-1.9,7.6-2.8c6.1-2,12.4-3.6,18.7-4.9c13.2-2.9,26.3-5.5,39.7-7.3c13.3-1.8,26.8-2.9,40.2-3.3
		c13.5-0.4,26.6-0.2,39.8,0.8c7.5,0.6,15.1,1.3,22.6,2.2c3.7,0.4,7.4,0.9,11,1.5c1.8,0.3,3.6,0.6,5.4,0.8c0.6,0.3,1.2,0.6,1.8,0.9
		c0,0,0.3,0.2,0.4,0.2c0.1,0.1,0.4,0.3,0.4,0.3c0.4,0.3,0.8,0.6,1.2,0.9c0.6,0.5,1.2,1,1.8,1.5c0.6,2.5,1.4,5,2.2,7.4
		c0.5,1.4,0.9,2.8,1.3,4.3c0.2,0.7,0.4,1.5,0.6,2.3c0.1,0.4,0.2,0.8,0.3,1.1c0.1,0.5,0.1,0.5,0,0.2c0.1,0.4,0.2,0.8,0.3,1.2
		c0,0.1,0,0.1,0,0.2c0,0.1,0,0.1,0,0.2c0.1,0.4,0.2,0.8,0.2,1.1c0.2,0.8,0.3,1.5,0.5,2.3c0.3,1.7,0.6,3.3,0.8,5
		c0.4,3.1,0.7,6.2,0.7,9.3c0,1.4,0.1,2.9,0,4.3c0,1.8-0.1,2.5-0.2,4.5c-0.2,3.1-0.6,6.2-1.1,9.3c-0.5,3.1-1.2,6.1-2.1,9.1
		c-0.2,0.5-0.3,1.1-0.5,1.6c0,0-0.2,0.5-0.2,0.6c-0.1,0.2-0.2,0.5-0.2,0.7c-0.5,1.4-1,2.8-1.5,4.2c-1.9,5.1-4.3,10-7.1,14.6
		c-0.2,0.3-0.4,0.6-0.5,0.9c0,0-0.2,0.3-0.3,0.5c-0.1,0.2-0.3,0.5-0.3,0.5c-0.2,0.3-0.4,0.6-0.6,0.9c-0.8,1.2-1.6,2.4-2.5,3.6
		c-1.6,2.2-3.3,4.3-5.1,6.4c-1.8,2-3.6,4-5.6,5.9c-0.2,0.2-0.4,0.4-0.5,0.5c0,0-0.5,0.4-0.5,0.5c-0.4,0.4-0.8,0.8-1.3,1.1
		c-1.1,1-2.2,1.9-3.4,2.8c-2.1,1.7-4.3,3.3-6.6,4.8c-1.2,0.8-2.4,1.6-3.6,2.3c-1.3,0.8-3.1,1.8-3.9,2.2c-1.3,0.7-2.8,1.5-4.5,2.3
		c-1.6,0.8-3.3,1.6-5,2.3c-3.3,1.4-6.5,2.6-9.9,3.8c-3.3,1.2-6.7,2.2-10.1,3.1c-1.6,0.4-3.2,1.1-4.8,1.5c-1,0.3-2,0.6-3,0.9
		c-2.1,0.3-4.2,0.6-6.2,0.8c-7.5,0.9-15,1.6-22.6,1.9c-3.8,0.2-7.6,0.3-11.4,0.2c-1.9,0-3.8,0-5.7-0.1c-1.4,0-3.4-0.1-5.1-0.2
		c-6.8-0.4-13.6-1.1-20.3-2.4c-3.3-0.7-6.6-1.4-9.8-2.5c-0.1,0-0.6-0.2-0.7-0.2c-0.4-0.1-0.8-0.3-1.2-0.4c-0.8-0.3-1.7-0.6-2.5-0.9
		c-1.6-0.6-3.1-1.3-4.7-2c-1.5-0.7-2.9-1.4-4.4-2.2c-0.7-0.4-1.3-0.8-2-1.2c-0.1-0.1-0.6-0.4-0.7-0.4c-0.3-0.2-0.6-0.4-0.9-0.6
		c-2.6-1.7-5.1-3.6-7.5-5.7c-1.2-1-2.3-2.1-3.4-3.2c-0.5-0.5-1.1-1.1-1.6-1.6C156.4,662.3,156.3,662.2,156.2,662.2L156.2,662.2z
		 M121.2,706.8C121.2,706.7,121.2,706.7,121.2,706.8L121.2,706.8L121.2,706.8z M377.8,684.2L377.8,684.2
		C377.5,684.5,377.7,684.3,377.8,684.2L377.8,684.2z M349.9,656.7L349.9,656.7c5.6,0.8,11.6,2,16.6,3.7c2.1,0.7,4.2,1.5,6.2,2.5
		c1,0.5,2,1,2.9,1.6c0,0,0.8,0.6,1,0.7c0.5,0.4,1,0.7,1.5,1.1c0.4,0.3,0.8,0.7,1.1,1c0.1,0.1,0.1,0.1,0.2,0.2c0,0,0.3,0.4,0.4,0.4
		c0.3,0.4,0.6,0.8,0.9,1.2c0.2,0.2,0.3,0.5,0.5,0.7c0.1,0.1,0.2,0.4,0.3,0.5c0.3,0.7,0.6,1.4,0.8,2.1c0,0.1,0.1,0.5,0.1,0.6
		c0,0.3,0.1,0.5,0.1,0.8c0,0.3,0,0.6,0.1,0.8c0,0.1,0,0.3,0,0.4c0,0,0,0.1,0,0.1c-0.1,0.6-0.1,1.2-0.3,1.8c0,0.2-0.1,0.4-0.2,0.6
		c0,0.1,0,0.1,0,0.2c0,0,0,0.1-0.1,0.2c-0.2,0.5-0.4,1-0.7,1.5c-0.1,0.2-0.2,0.5-0.4,0.7c0,0.1-0.4,0.7-0.4,0.7
		c-0.6,0.9-1.2,1.7-2,2.5c-0.2,0.3-0.5,0.5-0.7,0.7c0,0-0.1,0.1-0.1,0.1c-0.6,0.5-1.1,1-1.7,1.4c-1.1,0.8-2.2,1.5-3.3,2.2
		c-1.2,0.7-1.9,1.1-3.4,1.8c-2.5,1.2-5.1,2.3-7.6,3.4c-11,4.8-22,9.5-33.2,13.5c-5.7,2-11.4,3.8-17.2,5.4c-1.6,0.2-3.3,0.5-4.9,0.7
		c-4.5,0.8-9.1,1.7-13.6,2.5c-9.1,1.6-18.2,3.1-27.4,4.4c-18.3,2.5-36.7,4-55.1,4.5c-9.3,0.3-18.5,0.3-27.8,0
		c-8.4-0.2-17-0.5-25.6-1.5c-4-0.4-8-1-11.9-1.9c-3.9-0.9-6.9-1.8-10.6-3.5c-1.8-0.8-3.6-1.7-5.4-2.8c0,0-0.2-0.2-0.4-0.2
		c-0.1-0.1-0.3-0.2-0.3-0.2c-0.3-0.2-0.7-0.5-1-0.7c-0.8-0.6-1.6-1.3-2.4-1.9c-0.3-0.3-0.6-0.5-0.9-0.8c0,0-0.2-0.2-0.3-0.3
		c-0.1-0.1-0.2-0.3-0.3-0.3c-0.6-0.7-1.2-1.5-1.7-2.3c-0.1-0.2-0.2-0.4-0.3-0.6c0,0,0-0.1-0.1-0.1c-0.2-0.4-0.4-0.8-0.5-1.1
		c-0.1-0.4-0.3-0.7-0.4-1.1c0,0-0.1-0.2-0.1-0.3c0-0.2-0.1-0.5-0.1-0.6c-0.1-0.4-0.1-0.8-0.1-1.3c0-0.1,0-1,0-0.9
		c0.1-0.8,0.2-1.5,0.4-2.3c0.1-0.2,0.3-1,0.1-0.4c0.1-0.4,0.3-0.8,0.4-1.1c0.2-0.4,0.3-0.7,0.5-1.1c0.1-0.2,0.2-0.4,0.3-0.5
		c0,0,0.2-0.3,0.3-0.4c0.1-0.1,0.1-0.2,0.2-0.2c0.1-0.2,0.2-0.3,0.4-0.5c0.2-0.3,0.5-0.7,0.8-1c0.5-0.6,1.1-1.3,1.7-1.8
		c0,0,0.6-0.5,0.7-0.6c0.3-0.2,0.6-0.5,0.9-0.7c0.7-0.6,1.5-1.1,2.2-1.6c0.4-0.2,0.7-0.4,1.1-0.7c0,0,0.2-0.1,0.2-0.1
		c0.1-0.1,0.3-0.1,0.4-0.2c0.8-0.4,1.6-0.8,2.5-1.1c2-0.8,4.1-1.5,6.1-2.2c4.1-1.3,8.3-2.1,12.2-3.8c1-0.4,1.9-0.8,2.9-1.3
		c0.2-0.1,0.3-0.2,0.5-0.3c1.5-0.2,3-0.6,4.4-0.8c1.3-0.2,2.6-0.5,4-0.8c0.1,0,0.2,0,0.3-0.1c1.8,1.2,3.7,2.4,5.6,3.5
		c6.2,3.5,12.9,6,19.8,7.8c8.3,2.1,16.8,3.3,25.4,3.8c7.7,2.5,15.5,4.6,23.5,6c-6.8,0.2-13.6,0.7-20.4,0.8c-8.7-2-17.2-4.6-25.6-7.7
		c-6.5-2.4-12.9-5.2-19.1-8.3c-1.1-0.6-1.9,1.2-0.8,1.8c11.4,5.8,23.4,10.6,35.7,14.2c-7.3-0.1-14.5-0.5-21.8-1.1
		c-1.7-0.1-3.5-0.3-5.2-0.5c-1-0.3-2.1-0.6-3.1-0.9c-4.9-1.4-9.8-3.1-14.6-4.9c-1.4-0.5-2.3,1.5-0.9,2c2.1,0.8,4.3,1.6,6.4,2.3
		c-0.9,0.3-1,1.8,0.1,2c4.5,0.8,9,1.5,13.5,2.1c10.9,2.9,22.1,5,33.4,6.2c5.1,0.5,10.4,1.1,15.5,0.7c0.9-0.1,1-1.5,0.1-1.6
		c-4.5-0.7-9.1-0.8-13.6-1.2c-4.5-0.4-8.9-1-13.4-1.7c-1-0.2-2.1-0.3-3.1-0.5c6.7,0.4,13.4,0.5,20.1,0.4c7.4,1.6,14.8,2.8,22.4,3.5
		c3.4,0.3,6.9,0.6,10.4,0.6c3.6,0.1,7.2,0,10.8-0.4c0.5-0.1,0.6-0.9,0-1c-3.1-0.3-6.1-0.4-9.2-0.7c-3.1-0.3-6.1-0.5-9.2-0.8
		c-4.7-0.4-9.5-1-14.2-1.8c4.8-0.4,9.6-1,14.3-2.3c3.3,0.4,6.7,0.8,10.1,1c5.6,0.4,11.3,0.7,16.8,0c0.9-0.1,1-1.5,0.1-1.6
		c-4.9-0.4-9.8-0.5-14.7-0.8c-4.8-0.3-9.7-0.8-14.5-1.6c-6.7-1-13.4-2.4-19.9-4.1c3,0,6,0,8.9-0.1c7.8-0.2,15.5-0.9,23.2-2
		c7.8-1.2,15.5-3.1,23-5.4c0.2-0.1,0.4-0.1,0.6-0.2c2-0.4,4.1-0.9,6.1-1.4c6.2-1.6,12.3-3.8,18.1-6.5c11.1-5.2,21.1-12.5,29.5-21.4
		c0.4-0.4,0.8-0.8,1.1-1.2c0.9,0.1,1.8,0.3,2.7,0.3c1.5,0.1,3,0.2,4.4,0.3C344.3,656,347.1,656.3,349.9,656.7L349.9,656.7z
		 M420.5,570.4L420.5,570.4c0.1,0.8,0.1,1.6,0.1,2.5c0,0.5,0,1,0,1.5c0,0.2,0,0.4,0,0.6c0,0.1,0,0.4,0,0.5c-0.1,1.6-0.2,3.2-0.4,4.7
		c-0.2,1.6-0.5,3.3-0.9,4.9c-0.2,0.8-0.4,1.6-0.6,2.3c-0.1,0.2-0.3,1-0.1,0.4c-0.2,0.5-0.3,1-0.5,1.4c-0.6,1.5-1.2,3-2,4.5
		c-0.2,0.3-0.4,0.7-0.6,1c-0.1,0.1-0.4,0.6-0.4,0.7c-0.4,0.6-0.9,1.3-1.3,1.9c-0.5,0.6-1,1.2-1.5,1.8c-0.3,0.3-0.5,0.6-0.8,0.9
		c-0.1,0.1-0.2,0.2-0.4,0.4c0,0-0.1,0.1-0.1,0.1c0,0-0.1,0.1-0.1,0.1c-1.3,1.1-2.6,2.1-4,3c-0.7,0.4-1.3,0.8-2,1.2
		c-0.2,0.1-0.4,0.2-0.5,0.3c-0.4,0.2-0.8,0.4-1.2,0.6c-1.5,0.7-3.1,1.3-4.6,1.9c-6.4,2.4-13.1,3.8-19.5,6.3
		c-6.5,2.5-12.8,6.1-18.4,10.2c-2.9,2.1-5.6,4.4-8.1,6.9c-1.4,1.3-2.7,2.6-4,4.1c1.1-2.2,2.2-4.4,3.2-6.7c1.9-4.4,3.5-9,4.7-13.6
		c0.1-0.1,0.1-0.2,0.2-0.3c0.2-0.5,0.4-0.9,0.5-1.4c0.1-0.3,0.2-0.5,0.2-0.8c0,0,0-0.1,0-0.1c0,0,0-0.1,0.1-0.1
		c0.3-0.8,0.7-1.7,1.1-2.4c0.1-0.1,0.2-0.3,0.2-0.4c0-0.1,0.1-0.2,0.1-0.2c0.3-0.4,0.5-0.7,0.8-1.1c0.3-0.4,0.6-0.7,0.9-1
		c0.1-0.1,0.2-0.2,0.3-0.3c0,0,0.4-0.4,0.4-0.4c0.6-0.6,1.3-1.1,2-1.6c0.4-0.3,0.8-0.5,1.2-0.8c0.2-0.1,0.4-0.2,0.5-0.3
		c0.1-0.1,0.2-0.1,0.4-0.2c0,0,0,0,0,0c1.8-1,3.8-1.6,5.7-2.3c8.5-2.6,17.9-4,24.2-10.8c2.7-3,4.5-6.7,4.6-10.8
		c0.1-4.2-2.2-8-5.2-10.8c-5.6-5.2-13.9-7-21.3-6.1c-4.2,0.5-8.2,1.9-11.8,4c-1.6,0.9-3.1,2-4.4,3.3c-0.5-2.3-1.1-4.7-1.8-7
		c0.2-0.2,0.3-0.5,0.5-0.8c0.1-0.2,0.1-0.3,0.2-0.5c3.4-2.6,7.2-4.7,11-6.5c2.8-1.3,5.8-2.3,8.8-3.1c1.6-0.4,2.4-0.6,4.1-0.9
		c1.5-0.3,3.1-0.5,4.6-0.6c1.5-0.2,3.1-0.2,4.7-0.2c1.7,0,2.4,0,4.2,0.2c3.1,0.3,6.2,0.9,9.1,1.7c0.2,0.1,0.4,0.1,0.6,0.2
		c-0.1,0-0.5-0.2,0.1,0c0.3,0.1,0.6,0.2,0.9,0.3c0.8,0.3,1.6,0.6,2.4,0.9c1.5,0.6,2.9,1.3,4.3,2.1c0.2,0.1,0.4,0.2,0.6,0.3
		c0,0,0.2,0.1,0.3,0.2c0.2,0.2,0.5,0.3,0.7,0.5c0.7,0.5,1.5,1.1,2.2,1.7c0.3,0.2,0.5,0.5,0.8,0.7c0.2,0.2,0.3,0.3,0.5,0.5
		c-0.1-0.1-0.4-0.4,0.1,0.1c0.5,0.6,1,1.2,1.5,1.9c0.2,0.4,0.5,0.7,0.7,1.1c0,0,0.3,0.5,0.3,0.6c0.4,0.9,0.8,1.8,1.1,2.8
		c0.1,0.3,0.2,0.6,0.3,0.9c0,0.1,0.1,0.3,0.1,0.3c0,0.2,0.1,0.5,0.1,0.7C420.3,568.5,420.4,569.5,420.5,570.4z"/>
	<path fill-rule="evenodd" clip-rule="evenodd" fill="#FFFFFF" d="M249.3,712c-4.1,0.3-8.1,1.1-12.1,1.7c-4,0.6-8,1.2-12,1.6
		c-8.1,0.9-16.2,1.5-24.3,1.6c-16.3,0.2-32.6-1.2-48.5-4.2c-4.4-0.8-8.8-1.8-13.2-2.8c-4.5-1.1-9-2-13.4-3.3
		c-0.6-0.2-0.9,0.9-0.3,1.1c3.8,1.3,7.6,2.8,11.5,3.9c3.9,1.1,7.9,2.2,11.9,3c8.1,1.8,16.2,3.1,24.5,4c16.4,1.8,32.9,1.9,49.3,0.3
		c4.5-0.4,9.1-1,13.6-1.8c4.6-0.8,9.3-1.7,13.6-3.3C250.7,713.4,250.3,711.9,249.3,712z"/>
	<path fill-rule="evenodd" clip-rule="evenodd" fill="#FFFFFF" d="M272.8,695.5c-1.6,0.2-3.2,0.3-4.9,0.5c-1.7,0.2-1.4,2.7,0.2,2.6
		c1.6-0.1,3.3-0.2,4.9-0.4c1.3-0.1,3.3,0,4.1-1.2c0.3-0.4,0.2-0.8-0.1-1.1C276,694.8,274,695.3,272.8,695.5z"/>
	<path fill-rule="evenodd" clip-rule="evenodd" fill="#FFFFFF" d="M314.9,699.8c-1.2-0.4-2.4-0.1-3.6,0.1c-1.3,0.2-2.6,0.5-3.8,0.8
		c-2.7,0.6-5.4,1.1-8.1,1.7c-5.3,1.1-10.6,2.1-16,3.2c-1.2,0.2-1.1,2.2,0.2,2c5.3-1,10.7-2,16-2.9c2.6-0.5,5.3-0.9,7.9-1.4
		c1.3-0.2,2.6-0.4,3.8-0.7c1.2-0.3,2.8-0.4,3.7-1.3C315.4,700.7,315.5,700,314.9,699.8z"/>
	<path fill-rule="evenodd" clip-rule="evenodd" fill="#FFFFFF" d="M328.8,697.5c-2,0.8-4.1,1.6-5.8,3c-0.8,0.7-0.3,1.9,0.7,1.9
		c2,0,4.1-0.8,6-1.4c1.9-0.7,3.9-1.4,5.8-2.2c3.8-1.6,7.4-3.3,11-5.2c3.7-1.9,7.3-4,10.8-6.2c3.4-2.1,6.8-4.3,9.9-6.8
		c3.4-2.8,5.9-6.7,4.6-11.2c-0.5-1.7-2.9-0.7-2.5,1c0.9,3.5-2.7,6.5-5.1,8.2c-3.1,2.2-6.3,4.1-9.6,6.1c-6.5,3.8-13.1,7.2-20,10.3
		C332.8,695.8,330.8,696.7,328.8,697.5z"/>
	<path fill-rule="evenodd" clip-rule="evenodd" fill="#FFFFFF" d="M268.6,707.8c-1.4,0.5-3.4,0.9-4.1,2.4c-0.3,0.6,0,1.3,0.6,1.6
		c1.4,0.7,3.3-0.3,4.7-0.7C271.9,710.3,270.7,707.1,268.6,707.8z"/>
	<path fill-rule="evenodd" clip-rule="evenodd" fill="#FFFFFF" d="M210.9,676.3c-1.8-0.3-3.6-0.6-5.3-1c-3.7-0.8-7.3-1.8-10.9-2.9
		c-7.1-2.3-14.1-5.2-20.7-8.7c-1.2-0.7-2.1,1.3-0.9,2c6.7,3.6,13.8,6.6,21,8.9c3.5,1.1,7.1,2.1,10.8,2.9c1.9,0.4,3.8,0.8,5.7,1.1
		c1.8,0.3,3.7,0.8,5.4,0.1c0.4-0.1,0.5-0.7,0.1-0.9C214.5,676.7,212.6,676.6,210.9,676.3z"/>
	<path fill-rule="evenodd" clip-rule="evenodd" fill="#FFFFFF" d="M220.7,670.8c-1.8-1.1-4-1.5-6-2.1c-2.1-0.6-4.2-1.2-6.3-1.8
		c-4.3-1.2-8.5-2.5-12.8-3.7c-8.4-2.4-16.9-4.9-25.3-7.3c-1.2-0.3-1.5,1.6-0.3,1.9c8.4,2.5,16.9,5,25.3,7.5
		c4.2,1.2,8.4,2.5,12.5,3.7c2.1,0.6,4.2,1.2,6.3,1.8c2.1,0.6,4.2,1.4,6.3,1.5C221.3,672.3,221.3,671.2,220.7,670.8z"/>
	<path fill-rule="evenodd" clip-rule="evenodd" fill="#FFFFFF" d="M192.5,657.4c1.6,0.6,3.2,1.3,4.7,2c0,0,0,0.1,0.1,0.1
		c1.4,1.5,3.8,2.1,5.8,1.9c1-0.1,1.1-1.4,0.3-1.8c-3.2-1.6-6.8-2.7-10.1-4c-3.5-1.3-6.9-2.7-10.4-4c-6.8-2.7-13.7-5.3-20.5-8
		c-1.1-0.4-1.9,1.2-0.8,1.7c6.9,2.7,13.8,5.5,20.6,8.2C185.8,654.7,189.1,656,192.5,657.4z"/>
	<path fill-rule="evenodd" clip-rule="evenodd" fill="#FFFFFF" d="M182.8,649.2c1.3,0.6,2.7,1.2,4,1.7c1.4,0.6,2.8,1.3,4.3,1.4
		c0.6,0,1-0.6,0.5-1.1c-1.1-1-2.5-1.5-3.8-2.1c-1.4-0.6-2.8-1.2-4.2-1.8c-2.7-1.2-5.5-2.3-8.2-3.5c-5.5-2.3-11.1-4.7-16.6-7
		c-1-0.4-1.7,1.1-0.7,1.5c5.5,2.4,11,4.8,16.6,7.2C177.4,646.9,180.1,648,182.8,649.2z"/>
	<path fill-rule="evenodd" clip-rule="evenodd" fill="#FFFFFF" d="M156.8,633.1c2.4,1.2,4.8,2.3,7.3,3.5c1.2,0.6,2.4,1.1,3.5,1.7
		c1.1,0.5,2.2,1,3.5,0.9c0.4,0,0.6-0.5,0.4-0.8c-0.7-1-1.7-1.5-2.7-2c-1.2-0.6-2.5-1.2-3.7-1.8c-0.3-0.2-0.6-0.3-1-0.5
		c0.9,0.3,1.9,0.6,2.8,0.9c1.4,0.4,3.1,1.1,4.6,0.6c0.5-0.2,0.5-0.8,0.2-1.1c-1-1-2.7-1.1-4-1.5c-1.6-0.4-3.2-0.9-4.7-1.5
		c-3-1.1-5.9-2.4-8.7-3.9c-1.2-0.6-2.1,1.3-0.9,1.9c1.1,0.6,2.2,1.2,3.3,1.7C156,631.5,155.9,632.6,156.8,633.1z"/>
	<path fill-rule="evenodd" clip-rule="evenodd" fill="#FFFFFF" d="M163.7,626.8c1.4,0.6,2.7,1.3,4.1,1.9c1.2,0.6,2.6,1.6,4,1.4
		c0.5-0.1,0.7-0.6,0.5-1.1c-0.7-1.2-2.4-1.6-3.6-2.2c-1.4-0.6-2.7-1.3-4.1-1.9c-0.4-0.2-0.9-0.4-1.3-0.6c1.5,0.1,3,0.1,4.5,0.2
		c1,0,1.6-0.9,1.5-1.6c0.4-0.1,0.4-0.7,0.1-1c-1.1-1.2-3-1.7-4.4-2.3c-1.7-0.7-3.4-1.4-5-2.1c-3.3-1.4-6.6-2.8-9.9-4.2
		c-1-0.4-1.8,1.1-0.7,1.6c3.3,1.4,6.7,2.9,10,4.3c1.6,0.7,3.2,1.4,4.8,2.1c0.4,0.2,0.7,0.3,1.1,0.5c-2.8-0.1-5.6-0.3-8.4-0.4
		c-0.3-0.1-0.5-0.2-0.8-0.4c-0.5-0.2-0.9,0-1.2,0.3c-0.8,0-1.5-0.1-2.3-0.1c-1.7-0.1-2.2,2.5-0.5,2.6c1.9,0.1,3.8,0.2,5.7,0.3
		C159.9,625,161.8,625.9,163.7,626.8z"/>
	<path fill-rule="evenodd" clip-rule="evenodd" fill="#FFFFFF" d="M150.1,605.3c-1.4-0.6-2.4,1.6-1,2.2c2.4,1,4.8,2,7.2,3
		c2.3,0.9,4.8,2.2,7.2,2.4c0.7,0,1.3-0.8,0.6-1.4c-1.9-1.6-4.5-2.4-6.8-3.3C154.9,607.2,152.5,606.3,150.1,605.3z"/>
	<path fill-rule="evenodd" clip-rule="evenodd" fill="#FFFFFF" d="M169.8,705.2c13.9,4.4,28.3,7.5,42.8,9c4.1,0.4,8.2,0.8,12.3,0.4
		c0.6-0.1,0.7-1,0-1.1c-3.5-0.7-7.1-0.9-10.7-1.3c-3.5-0.4-7-0.8-10.5-1.3c-7.1-1-14.1-2.4-21-4.2c-4-1-8-2.1-11.9-3.4
		C169.4,702.9,168.6,704.8,169.8,705.2z"/>
	<path fill-rule="evenodd" clip-rule="evenodd" fill="#FFFFFF" d="M276.2,689.5c4.4,0.6,8.7,1.1,13.1,1.6c2.2,0.3,4.3,0.5,6.5,0.8
		c2.1,0.2,4.3,0.6,6.5,0.4c0.6-0.1,0.8-1,0.2-1.2c-1.9-0.7-4.1-0.9-6.1-1.2c-2.2-0.3-4.4-0.6-6.7-0.9c-4.4-0.5-8.7-1.1-13.1-1.6
		C275.2,687.3,274.8,689.4,276.2,689.5z"/>
	<path fill-rule="evenodd" clip-rule="evenodd" fill="#FFFFFF" d="M318.4,686.3c-2.6,0.1-5.3,0-7.9-0.1c0.2-0.2,0.4-0.4,0.6-0.6
		c0.4-0.4,0-1.3-0.6-1.2c-1.4,0.3-2.8,0.8-4.1,1.4c-4.1-0.5-8.2-1.5-12.2-3.1c-1.3-0.5-2.3,1.5-0.9,2c3.1,1.3,6.3,2.2,9.6,2.9
		c-0.3,0.2-0.6,0.3-0.9,0.5c-0.7,0.4-0.8,1.6-0.4,2.2c0.5,0.8,1.5,0.8,2.2,0.4c1.4-0.8,2.8-1.6,4.1-2.4c3.6,0.2,7.2-0.1,10.7-1
		C319.1,687,318.9,686.3,318.4,686.3z"/>
	<path fill-rule="evenodd" clip-rule="evenodd" fill="#FFFFFF" d="M304.2,680c4.5,1.6,9.1,2.8,13.8,3.5c4.6,0.7,9.4,1,13.9-0.2
		c0.6-0.1,0.4-1.1-0.1-1.1c-4.4-0.5-8.9-0.6-13.3-1.2c-4.5-0.7-8.9-1.8-13.1-3.4C303.7,677.1,302.6,679.5,304.2,680z"/>
	<path fill-rule="evenodd" clip-rule="evenodd" fill="#FFFFFF" d="M315.6,673.3c2.7,1.4,5.6,2.6,8.5,3.3c2.7,0.7,6,1.5,8.8,0.8
		c0.5-0.1,0.5-0.9,0-1.1c-1.2-0.5-2.6-0.7-3.9-0.9c-1.5-0.3-2.9-0.6-4.3-1c-2.8-0.8-5.6-1.8-8.2-3.1
		C315.2,670.7,314.3,672.7,315.6,673.3z"/>
	<path fill-rule="evenodd" clip-rule="evenodd" fill="#FFFFFF" d="M325.4,666.2c-1.5-0.4-1.9,1.9-0.4,2.4c2.2,0.7,4.4,1.3,6.6,2
		c2.1,0.6,4.3,1.3,6.5,1.2c0.6,0,0.9-0.9,0.4-1.2c-1.8-1.3-4.1-1.8-6.2-2.4C330,667.4,327.7,666.8,325.4,666.2z"/>
</g>
</svg>
